<svg width="42" height="43" viewBox="0 0 42 43" fill="none" xmlns="http://www.w3.org/2000/svg">
<path d="M37.2 5.43994H4.79999V36.6399H37.2V5.43994Z" fill="white"/>
<path d="M34.6908 20.0414L6.69843 23.0181L8.28476 37.9359L36.2771 34.9592L34.6908 20.0414Z" fill="#FFD42F"/>
<path fill-rule="evenodd" clip-rule="evenodd" d="M1.83047 12.3546V30.5414C1.83047 36.0341 6.31848 40.5221 11.8111 40.5221H17.9298H20.8194H23.879H29.9978C35.4905 40.5221 39.9785 36.0341 39.9785 30.5414V12.3546C39.9785 6.86202 35.4905 2.37402 29.9978 2.37402H11.8111C6.31848 2.37402 1.83047 6.86202 1.83047 12.3546ZM29.2144 18.11L28.3963 23.4021H24.1052V35.8005H18.3542V23.4021H13.6855V18.11H18.3542V14.0815C18.3542 9.48996 21.0976 6.96275 25.3007 6.96275C27.3142 6.96275 29.4157 7.32556 29.4157 7.32556V11.8295H27.1002C24.8225 11.8295 24.1052 13.2307 24.1052 14.682V18.11H29.2144Z" fill="black"/>
</svg>
