<svg width="42" height="43" viewBox="0 0 42 43" fill="none" xmlns="http://www.w3.org/2000/svg">
<path d="M37.2 4.24023H4.79999V35.4402H37.2V4.24023Z" fill="white"/>
<path d="M36.5166 20.6522L8.52423 23.6289L9.77665 35.4066L37.769 32.4299L36.5166 20.6522Z" fill="#FFD42F"/>
<path fill-rule="evenodd" clip-rule="evenodd" d="M1.73438 12.3959V30.658C1.73438 36.1733 6.26733 40.6799 11.8149 40.6799H30.184C35.7314 40.6799 40.2644 36.1733 40.2644 30.658V12.3959C40.2644 6.88061 35.7314 2.37402 30.184 2.37402H11.8149C6.26733 2.37402 1.73438 6.88061 1.73438 12.3959ZM25.6643 15.6179C25.6643 14.8974 26.2573 14.3079 26.982 14.3079C27.72 14.3079 28.2997 14.8974 28.3129 15.6179C28.3129 16.3516 27.72 16.941 26.982 16.941C26.2573 16.941 25.6643 16.3516 25.6643 15.6179ZM21.0919 15.9982C18.0217 15.9982 15.5312 18.4743 15.5312 21.5267C15.5312 24.579 18.0217 27.0551 21.0919 27.0551C24.1622 27.0551 26.6527 24.579 26.6527 21.5267C26.6527 18.4743 24.1622 15.9982 21.0919 15.9982ZM21.0919 25.0769C19.1286 25.0769 17.5342 23.4917 17.5342 21.5398C17.5342 19.5878 19.1286 18.0027 21.0919 18.0027C23.0554 18.0027 24.6498 19.5878 24.6498 21.5398C24.6498 23.4917 23.0554 25.0769 21.0919 25.0769ZM16.4929 32.7545H25.5061C29.2484 32.7545 32.2924 29.7282 32.2924 26.0078V17.047C32.2924 13.3264 29.2484 10.3002 25.5061 10.3002H16.4929C12.7506 10.3002 9.70673 13.3264 9.70673 17.047V26.0078C9.70673 29.7282 12.7506 32.7545 16.4929 32.7545ZM11.8282 17.047C11.8282 14.4924 13.9234 12.4094 16.4929 12.4094H25.5061C28.0757 12.4094 30.1709 14.4924 30.1709 17.047V26.0078C30.1709 28.5623 28.0757 30.6453 25.5061 30.6453H16.4929C13.9234 30.6453 11.8282 28.5623 11.8282 26.0078V17.047Z" fill="black"/>
</svg>
