<svg width="265" height="82" viewBox="0 0 265 82" fill="none" xmlns="http://www.w3.org/2000/svg">
<mask id="mask0_2_5" style="mask-type:luminance" maskUnits="userSpaceOnUse" x="0" y="0" width="265" height="82">
<path d="M265 0H0V82H265V0Z" fill="white"/>
</mask>
<g mask="url(#mask0_2_5)">
<path d="M241.411 0.925018L151.027 10.2556L153.071 27.326L243.456 17.9955L241.411 0.925018Z" fill="#FFD42F"/>
<path d="M239.083 62.9227L152.709 54.0089L151.032 71.1155L237.042 79.9918L239.083 62.9227Z" fill="#FFD42F"/>
<path d="M265.001 31.957H153.167V49.1323H265.001V31.957Z" fill="#FFD42F"/>
<path d="M163.382 13.0458L171.909 12.1622L172.194 14.5444L169.407 14.8317L170.204 21.46L167.225 21.7692L166.427 15.1407L163.67 15.4249L163.382 13.0458Z" fill="black"/>
<path d="M174.794 13.0731C175.668 12.0584 176.863 11.4653 178.358 11.3091C179.855 11.153 181.146 11.4902 182.239 12.3019C183.332 13.1138 183.95 14.1566 184.105 15.4586C184.26 16.7573 183.91 17.9157 183.036 18.9304C182.161 19.9451 180.982 20.5258 179.485 20.6788C177.989 20.835 176.684 20.5009 175.592 19.6891C174.498 18.8773 173.879 17.8189 173.725 16.5325C173.567 15.2338 173.92 14.091 174.794 13.0731ZM179.182 18.1592C179.807 18.0936 180.296 17.8345 180.648 17.3943C181.002 16.9416 181.146 16.4045 181.072 15.7739C180.995 15.1432 180.726 14.6498 180.276 14.2908C179.825 13.9193 179.286 13.7662 178.661 13.8318C178.036 13.8975 177.548 14.1566 177.195 14.6093C176.842 15.0495 176.694 15.5865 176.771 16.2172C176.849 16.8479 177.117 17.3413 177.569 17.7128C178.019 18.0718 178.557 18.2248 179.182 18.1592Z" fill="black"/>
<path d="M186.897 19.7343L185.814 10.7236L190.737 10.2147C191.638 10.121 192.394 10.2397 193.026 10.5769C193.655 10.9016 194.015 11.4387 194.106 12.1973C194.156 12.6219 194.075 13.0091 193.85 13.3307C193.622 13.6554 193.396 13.8864 193.147 14.03C193.571 14.0644 194.018 14.2798 194.476 14.6732C194.93 15.0572 195.202 15.5755 195.279 16.2187C195.374 17.0024 195.118 17.6705 194.522 18.2137C193.928 18.757 193.097 19.0911 192.031 19.2003L186.897 19.7343ZM189.196 13.7741L190.707 13.6179C191.11 13.5773 191.382 13.2869 191.345 12.9653C191.301 12.5907 190.965 12.3659 190.561 12.4065L189.052 12.5626L189.196 13.7741ZM189.607 17.199L191.174 17.0367C191.715 16.9805 192.028 16.6621 191.974 16.2124C191.92 15.7628 191.509 15.4912 190.996 15.5442L189.429 15.7067L189.607 17.199Z" fill="black"/>
<path d="M196.946 18.6929L199.851 9.21703L202.693 8.92355L207.787 17.572L204.586 17.9029L203.692 16.2888L200.531 16.6167L200.026 18.3776L196.946 18.6929ZM201.14 14.4529L202.569 14.3062L201.604 12.2424L201.14 14.4529Z" fill="black"/>
<path d="M212.942 7.91292C214.051 7.7974 214.97 7.97536 215.702 8.46245C216.45 8.94636 216.866 9.60515 216.966 10.47C217.066 11.3193 216.822 12.0624 216.208 12.6867C215.609 13.3081 214.755 13.6702 213.645 13.7858L212.161 13.9387L212.539 17.0797L209.559 17.3887L208.477 8.37812L212.942 7.91292ZM213.006 11.8156C213.613 11.7533 213.991 11.3754 213.934 10.8977C213.877 10.4201 213.409 10.1453 212.811 10.2046L211.728 10.317L211.919 11.9249L213.006 11.8156Z" fill="black"/>
<path d="M219.626 16.3462L218.543 7.3355L221.429 7.03577L221.968 11.5162L225.172 6.64863L227.626 6.39572L228.709 15.4064L225.855 15.703L225.319 11.2632L222.166 16.087L219.626 16.3462Z" fill="black"/>
<path d="M166.367 46.7213V42.6531H167.359C167.988 41.6038 168.307 39.9585 168.307 37.745V35.984H175.91V42.6531H177.137V46.7213H174.32V45.0509H169.168V46.7213H166.367ZM172.92 42.6562V38.3819H171.121C171.121 39.0937 171.051 39.8587 170.927 40.7016C170.803 41.5322 170.621 42.1784 170.368 42.6562H172.92Z" fill="black"/>
<path d="M178.457 42.4596C178.736 42.5751 178.958 42.6281 179.14 42.6281C179.49 42.6281 179.739 42.5625 179.906 42.4346C180.243 42.163 180.505 41.1794 180.522 39.0158L180.562 35.984H188.263V45.051H185.276V38.382H183.282L183.27 39.4685C183.256 41.6821 182.905 43.1994 182.277 44.0269C181.662 44.8573 180.895 45.1664 179.823 45.1664C179.194 45.1664 178.733 45.0883 178.454 44.9198V42.4596H178.457Z" fill="black"/>
<path d="M189.911 45.0492L192.827 41.4992C191.711 40.981 191.041 40.0349 191.041 38.8953C191.041 38.0523 191.378 37.3529 192.046 36.8096C192.716 36.2539 193.61 35.9792 194.71 35.9792H199.397V45.0459H196.398V41.8084H196.007L193.385 45.0459H189.911V45.0492ZM196.398 39.7789V38.3146H195.059C194.501 38.3146 194.125 38.5862 194.125 39.0388C194.125 39.4916 194.501 39.7758 195.059 39.7758H196.398V39.7789Z" fill="black"/>
<path d="M205.661 46.719V42.6507H206.653C207.282 41.6018 207.601 39.9564 207.601 37.7426V35.9817H215.203V42.6507H216.432V46.719H213.613V45.0487H208.466V46.719H205.661ZM212.218 42.6538V38.3796H210.419C210.419 39.0915 210.348 39.8564 210.225 40.6994C210.099 41.53 209.918 42.1762 209.666 42.6538H212.218Z" fill="black"/>
<path d="M219.698 37.1869C220.689 36.2661 221.943 35.8008 223.45 35.8008C224.955 35.8008 226.197 36.2661 227.189 37.1869C228.18 38.108 228.668 39.207 228.668 40.5153C228.668 41.8235 228.18 42.938 227.189 43.856C226.197 44.777 224.955 45.2297 223.45 45.2297C221.943 45.2297 220.689 44.7646 219.698 43.8435C218.704 42.9224 218.218 41.8109 218.218 40.5153C218.218 39.207 218.704 38.108 219.698 37.1869ZM223.445 42.6914C224.076 42.6914 224.588 42.4854 224.993 42.0826C225.396 41.6674 225.609 41.1492 225.609 40.5153C225.609 39.8814 225.401 39.3633 224.993 38.9604C224.588 38.5452 224.071 38.339 223.445 38.339C222.817 38.339 222.304 38.5452 221.899 38.9604C221.496 39.3633 221.284 39.8814 221.284 40.5153C221.284 41.1492 221.492 41.6674 221.899 42.0826C222.304 42.4854 222.821 42.6914 223.445 42.6914Z" fill="black"/>
<path d="M230.924 45.0487V35.9817H233.895L236.033 39.2069L238.182 35.9817H241.137V45.0487H238.26V39.972L236.88 42.1355H235.262L233.827 39.972V45.0487H230.924Z" fill="black"/>
<path d="M243.633 44.8551V42.5228C244.011 42.7164 244.473 42.807 245.002 42.807C245.601 42.807 246.048 42.5726 246.315 42.12L242.828 35.9817H246.106L247.794 39.4535L249.314 35.9817H252.452L248.963 43.0286C248.504 43.9621 247.822 44.6208 247.151 44.8924C246.482 45.1518 246.036 45.2296 245.547 45.2296C244.72 45.2296 244.091 45.1017 243.633 44.8551Z" fill="black"/>
<path d="M175.423 70.9343L175.621 69.2734L164.28 68.1027L165.358 59.0919L168.338 59.401L167.544 66.0295L169.569 66.2386L170.362 59.6101L173.328 59.9162L172.534 66.5447L174.545 66.7537L175.339 60.1253L178.291 60.4314L177.497 67.0598L178.704 67.1846L178.22 71.2279L175.423 70.9343Z" fill="black"/>
<path d="M182.604 62.0862C183.698 61.2744 185.002 60.9402 186.498 61.0934C187.995 61.2494 189.175 61.8396 190.049 62.8542C190.923 63.8689 191.277 65.0148 191.122 66.3136C190.968 67.6124 190.349 68.6708 189.255 69.4826C188.163 70.2944 186.875 70.6191 185.375 70.4629C183.879 70.307 182.686 69.7167 181.811 68.6989C180.938 67.6844 180.584 66.5259 180.739 65.2395C180.893 63.9408 181.509 62.898 182.604 62.0862ZM185.678 67.9402C186.304 68.0058 186.838 67.8528 187.289 67.4937C187.74 67.1223 188.008 66.6291 188.085 65.9982C188.16 65.3676 188.015 64.8305 187.662 64.3904C187.309 63.9375 186.821 63.6784 186.196 63.6128C185.571 63.5473 185.035 63.7004 184.582 64.0719C184.131 64.4278 183.862 64.9211 183.788 65.555C183.715 66.1887 183.859 66.7227 184.212 67.1753C184.565 67.6187 185.052 67.8779 185.678 67.9402Z" fill="black"/>
<path d="M191.643 72.6108L192.127 68.5676L193.112 68.6705C193.863 67.6933 194.376 66.0916 194.639 63.8905L194.848 62.139L202.403 62.9194L201.609 69.5479L202.83 69.6728L202.346 73.7159L199.544 73.4257L199.743 71.7646L194.629 71.2369L194.431 72.898L191.643 72.6108ZM198.643 69.2418L199.152 64.9926L197.363 64.8085C197.279 65.5172 197.117 66.2695 196.892 67.0939C196.67 67.9056 196.41 68.5301 196.105 68.9797L198.643 69.2418Z" fill="black"/>
<path d="M204.599 72.2676L205.678 63.257L208.658 63.566L208.291 66.6164L211.256 66.9224L211.623 63.8721L214.602 64.1812L213.524 73.1918L210.545 72.8827L210.97 69.3296L208.005 69.0237L207.578 72.5768L204.599 72.2676Z" fill="black"/>
<path d="M215.163 73.3605L218.484 70.1321C217.439 69.5016 216.883 68.493 217.021 67.3629C217.121 66.526 217.539 65.8643 218.269 65.3928C219.001 64.9087 219.919 64.7308 221.015 64.8432L225.672 65.3241L224.594 74.3347L221.613 74.0255L222 70.8066L221.613 70.766L218.622 73.7134L215.163 73.3605ZM222.24 68.7865L222.415 67.3316L221.082 67.1943C220.528 67.1382 220.122 67.3692 220.067 67.8188C220.013 68.2683 220.354 68.59 220.908 68.6492L222.24 68.7865Z" fill="black"/>
<path d="M142.292 27.1664H140.13H135.523V0.927399L0 14.9616V66.2998L135.523 80.3341V54.0952C138.966 54.0735 141.757 51.5225 141.757 48.3877C141.757 46.9454 141.166 45.6279 140.193 44.6226L142.05 29.1614L142.292 27.1664Z" fill="#FFD42F"/>
<path d="M135.479 42.6755C135.223 42.6755 134.975 42.6914 134.725 42.7201H136.228C135.983 42.6914 135.734 42.6755 135.479 42.6755Z" fill="black"/>
<path d="M138.475 42.7162L140.129 28.9598H130.778L132.429 42.7162H138.475Z" fill="black"/>
<path d="M20.3776 28.9598V35.8818H26.3494V51.7551H34.7657V35.8818H40.7409V28.9598H20.3776Z" fill="black"/>
<path d="M57.6642 28.9598H47.4726L39.1267 51.7551H48.2289L49.1671 48.5173H55.9694L56.9076 51.7551H66.0101L57.6642 28.9598ZM50.6197 43.503L52.5666 36.7842L54.5136 43.503H50.6197Z" fill="black"/>
<path d="M119.985 28.9598H109.793L101.448 51.7551H110.549L111.488 48.5173H118.291L119.228 51.7551H128.331L119.985 28.9598ZM112.94 43.503L114.887 36.7842L116.834 43.503H112.94Z" fill="black"/>
<path d="M70.3574 44.1282C72.7568 44.1282 74.702 42.3767 74.702 40.2162C74.702 38.0555 72.7568 36.304 70.3574 36.304C67.9582 36.304 66.0131 38.0555 66.0131 40.2162C66.0131 42.3767 67.9582 44.1282 70.3574 44.1282Z" fill="black"/>
<path d="M101.521 40.3433C101.515 35.3323 97.9401 29.0441 88.5621 28.9723C86.8909 28.9598 78.4679 28.9599 78.4679 28.9599V51.7551C78.4679 51.7551 86.9144 51.7551 88.5621 51.7426C97.9401 51.6706 101.515 45.3827 101.521 40.3713V40.3558V40.3433ZM88.6764 44.8329C87.9031 44.8329 86.8876 44.8329 86.8876 44.8329V35.8817C86.8876 35.8817 87.9031 35.8817 88.6764 35.8817C91.558 35.8817 92.9267 38.217 92.9267 40.3588C92.9267 42.5008 91.558 44.8329 88.6764 44.8329Z" fill="black"/>
<path d="M135.48 52.298C137.879 52.298 139.824 50.5464 139.824 48.3858C139.824 46.2252 137.879 44.4738 135.48 44.4738C133.081 44.4738 131.136 46.2252 131.136 48.3858C131.136 50.5464 133.081 52.298 135.48 52.298Z" fill="black"/>
</g>
</svg>
