<svg width="470" height="151" viewBox="0 0 470 151" fill="none" xmlns="http://www.w3.org/2000/svg">
<path d="M70.16 73H65.584V61.8H73.232V62.872H66.768V66.04H70.16C71.408 66.04 72.3787 66.36 73.072 67C73.776 67.64 74.128 68.4827 74.128 69.528C74.128 70.584 73.776 71.4267 73.072 72.056C72.368 72.6853 71.3973 73 70.16 73ZM66.768 67.112V71.928H70.048C70.9653 71.928 71.6747 71.72 72.176 71.304C72.688 70.8773 72.944 70.28 72.944 69.512C72.944 68.7547 72.688 68.168 72.176 67.752C71.6747 67.3253 70.9653 67.112 70.048 67.112H66.768ZM77.1243 66.28C77.9029 65.48 78.9056 65.08 80.1323 65.08C81.3589 65.08 82.3616 65.48 83.1403 66.28C83.9189 67.0587 84.3083 68.0133 84.3083 69.144C84.3083 70.2747 83.9189 71.2293 83.1403 72.008C82.3509 72.7973 81.3483 73.192 80.1323 73.192C78.9163 73.192 77.9136 72.7973 77.1243 72.008C76.3456 71.2293 75.9563 70.2747 75.9563 69.144C75.9563 68.0133 76.3456 67.0587 77.1243 66.28ZM83.1243 69.144C83.1243 68.2907 82.8416 67.5707 82.2763 66.984C81.7109 66.408 80.9963 66.12 80.1323 66.12C79.2683 66.12 78.5536 66.408 77.9883 66.984C77.4229 67.5707 77.1403 68.2907 77.1403 69.144C77.1403 69.9867 77.4229 70.7013 77.9883 71.288C78.5536 71.864 79.2683 72.152 80.1323 72.152C80.9963 72.152 81.7109 71.864 82.2763 71.288C82.8416 70.7013 83.1243 69.9867 83.1243 69.144ZM87.6058 73H86.4538V65.272H87.6058V68.52H92.3578V65.272H93.5098V73H92.3578V69.56H87.6058V73ZM96.667 76.264C96.1123 76.264 95.7017 76.1893 95.435 76.04V74.968C95.7657 75.1387 96.1177 75.224 96.491 75.224C96.9603 75.224 97.3657 75.0267 97.707 74.632C98.0483 74.248 98.4057 73.608 98.779 72.712L95.339 65.272H96.619L99.355 71.352L102.011 65.272H103.259L99.435 73.864C98.7417 75.464 97.819 76.264 96.667 76.264ZM108.459 73.192C107.275 73.192 106.294 72.808 105.515 72.04C104.736 71.2613 104.347 70.2907 104.347 69.128C104.347 67.976 104.742 67.016 105.531 66.248C106.31 65.4693 107.291 65.08 108.475 65.08C109.371 65.08 110.15 65.2667 110.811 65.64V66.712C110.118 66.3173 109.392 66.12 108.635 66.12C107.739 66.12 106.998 66.408 106.411 66.984C105.824 67.5387 105.531 68.2587 105.531 69.144C105.531 70.008 105.824 70.728 106.411 71.304C107.008 71.8693 107.75 72.152 108.635 72.152C109.488 72.152 110.262 71.928 110.955 71.48V72.536C110.23 72.9733 109.398 73.192 108.459 73.192ZM114.77 69.56H113.698L113.49 61.8H114.978L114.77 69.56ZM114.226 73.096C113.991 73.096 113.794 73.016 113.634 72.856C113.474 72.696 113.394 72.4987 113.394 72.264C113.394 72.0293 113.474 71.832 113.634 71.672C113.794 71.512 113.991 71.432 114.226 71.432C114.46 71.432 114.658 71.512 114.818 71.672C114.978 71.832 115.058 72.0293 115.058 72.264C115.058 72.4987 114.978 72.696 114.818 72.856C114.658 73.016 114.46 73.096 114.226 73.096ZM123.487 73H122.303V61.8H127.007C128.116 61.8 128.991 62.0827 129.631 62.648C130.271 63.2133 130.591 63.9653 130.591 64.904C130.591 65.864 130.271 66.632 129.631 67.208C128.991 67.7733 128.116 68.056 127.007 68.056H123.487V73ZM123.487 62.872V66.984H126.927C127.716 66.984 128.329 66.808 128.767 66.456C129.204 66.0933 129.423 65.5867 129.423 64.936C129.423 64.2747 129.204 63.768 128.767 63.416C128.34 63.0533 127.727 62.872 126.927 62.872H123.487ZM136.103 73.192C134.898 73.192 133.884 72.8133 133.063 72.056C132.252 71.3093 131.847 70.3387 131.847 69.144C131.847 67.992 132.21 67.0267 132.935 66.248C133.671 65.4693 134.615 65.08 135.767 65.08C136.386 65.08 136.935 65.208 137.415 65.464C137.895 65.7093 138.274 66.0347 138.551 66.44C138.828 66.8453 139.036 67.2773 139.175 67.736C139.314 68.184 139.383 68.6373 139.383 69.096V69.416H133.031C133.095 70.248 133.426 70.9147 134.023 71.416C134.631 71.9067 135.399 72.152 136.327 72.152C137.223 72.152 138.05 71.912 138.807 71.432V72.456C138.178 72.9467 137.276 73.192 136.103 73.192ZM133.047 68.472H138.215C138.183 67.8747 137.959 67.336 137.543 66.856C137.148 66.3653 136.54 66.12 135.719 66.12C134.951 66.12 134.322 66.3547 133.831 66.824C133.351 67.304 133.09 67.8533 133.047 68.472ZM141.548 65.272H142.7V68.456L146.38 65.272H147.948L143.868 68.76L148.524 73H146.876L142.7 69.192V73H141.548V65.272ZM149.18 73V71.944C149.233 71.9547 149.334 71.96 149.484 71.96C150.156 71.96 150.614 71.5333 150.86 70.68C151.062 69.9973 151.19 69.016 151.244 67.736L151.308 65.272H157.084V73H155.932V66.28H152.412L152.364 67.768C152.342 68.344 152.321 68.76 152.3 69.016C152.204 70.0613 152.049 70.8293 151.836 71.32C151.644 71.832 151.35 72.2533 150.956 72.584C150.561 72.904 150.081 73.048 149.516 73.016C149.345 73.016 149.233 73.0107 149.18 73ZM162.406 72.152C162.939 72.152 163.446 72.0293 163.926 71.784C164.406 71.5387 164.795 71.2293 165.094 70.856V69.784C164.304 69.272 163.467 69.016 162.582 69.016C161.878 69.016 161.318 69.1547 160.902 69.432C160.496 69.7093 160.294 70.088 160.294 70.568C160.294 71.0693 160.491 71.4587 160.886 71.736C161.28 72.0133 161.787 72.152 162.406 72.152ZM162.086 73.192C161.264 73.192 160.566 72.968 159.99 72.52C159.424 72.0507 159.142 71.4213 159.142 70.632C159.142 69.8533 159.44 69.2293 160.038 68.76C160.635 68.3013 161.392 68.072 162.31 68.072C163.312 68.072 164.24 68.3227 165.094 68.824V68.056C165.094 66.7653 164.246 66.12 162.549 66.12C161.643 66.12 160.8 66.3813 160.022 66.904V65.784C160.779 65.3147 161.702 65.08 162.79 65.08C163.846 65.08 164.683 65.3307 165.302 65.832C165.931 66.3227 166.246 67.0267 166.246 67.944V71.128C166.246 71.4267 166.31 71.6613 166.438 71.832C166.576 72.0027 166.758 72.088 166.982 72.088C167.152 72.088 167.302 72.056 167.43 71.992V72.888C167.259 73.0053 167.003 73.064 166.661 73.064C166.278 73.064 165.952 72.9627 165.686 72.76C165.43 72.5467 165.27 72.2373 165.206 71.832C164.427 72.7387 163.387 73.192 162.086 73.192ZM170.418 73H169.298V65.272H170.418L173.506 68.856L176.61 65.272H177.73V73H176.61V66.856L173.73 70.2H173.282L170.418 66.856V73ZM181.606 73H180.454V65.272H181.606V68.52H186.358V65.272H187.51V73H186.358V69.56H181.606V73ZM191.307 73H190.235V65.272H191.387V71.304L196.331 65.272H197.403V73H196.251V66.984L191.307 73ZM201.198 73H200.126V65.272H201.278V71.304L206.222 65.272H207.294V73H206.142V66.984L201.198 73ZM203.726 63.96C202.947 63.96 202.318 63.7413 201.838 63.304C201.358 62.856 201.112 62.264 201.102 61.528H202.126C202.126 61.976 202.27 62.3387 202.558 62.616C202.846 62.8933 203.23 63.032 203.71 63.032C204.179 63.032 204.558 62.8933 204.846 62.616C205.134 62.3387 205.283 61.976 205.294 61.528H206.302C206.291 62.2533 206.046 62.84 205.566 63.288C205.086 63.736 204.472 63.96 203.726 63.96ZM215.387 71.768V76.2H214.235V65.272H215.387V66.504C216.112 65.5547 217.11 65.08 218.379 65.08C219.52 65.08 220.454 65.4747 221.179 66.264C221.904 67.0533 222.267 68.008 222.267 69.128C222.267 70.2587 221.904 71.2187 221.179 72.008C220.454 72.7973 219.52 73.192 218.379 73.192C217.11 73.192 216.112 72.7173 215.387 71.768ZM215.387 67.864V70.408C215.611 70.92 215.974 71.3413 216.475 71.672C216.976 71.992 217.52 72.152 218.107 72.152C218.971 72.152 219.68 71.864 220.235 71.288C220.8 70.6907 221.083 69.9707 221.083 69.128C221.083 68.2853 220.8 67.5707 220.235 66.984C219.68 66.408 218.971 66.12 218.107 66.12C217.531 66.12 216.992 66.2853 216.491 66.616C215.99 66.936 215.622 67.352 215.387 67.864ZM225.015 66.28C225.794 65.48 226.796 65.08 228.023 65.08C229.25 65.08 230.252 65.48 231.031 66.28C231.81 67.0587 232.199 68.0133 232.199 69.144C232.199 70.2747 231.81 71.2293 231.031 72.008C230.242 72.7973 229.239 73.192 228.023 73.192C226.807 73.192 225.804 72.7973 225.015 72.008C224.236 71.2293 223.847 70.2747 223.847 69.144C223.847 68.0133 224.236 67.0587 225.015 66.28ZM231.015 69.144C231.015 68.2907 230.732 67.5707 230.167 66.984C229.602 66.408 228.887 66.12 228.023 66.12C227.159 66.12 226.444 66.408 225.879 66.984C225.314 67.5707 225.031 68.2907 225.031 69.144C225.031 69.9867 225.314 70.7013 225.879 71.288C226.444 71.864 227.159 72.152 228.023 72.152C228.887 72.152 229.602 71.864 230.167 71.288C230.732 70.7013 231.015 69.9867 231.015 69.144ZM233.086 73V71.944C233.139 71.9547 233.241 71.96 233.39 71.96C234.062 71.96 234.521 71.5333 234.766 70.68C234.969 69.9973 235.097 69.016 235.15 67.736L235.214 65.272H240.99V73H239.838V66.28H236.318L236.27 67.768C236.249 68.344 236.227 68.76 236.206 69.016C236.11 70.0613 235.955 70.8293 235.742 71.32C235.55 71.832 235.257 72.2533 234.862 72.584C234.467 72.904 233.987 73.048 233.422 73.016C233.251 73.016 233.139 73.0107 233.086 73ZM244.776 73H243.704V65.272H244.856V71.304L249.8 65.272H250.872V73H249.72V66.984L244.776 73ZM253.594 65.272H254.746V68.456L258.426 65.272H259.994L255.914 68.76L260.57 73H258.922L254.746 69.192V73H253.594V65.272ZM267.621 73H266.469V65.272H267.621V68.52H272.373V65.272H273.525V73H272.373V69.56H267.621V73ZM278.859 72.152C279.392 72.152 279.899 72.0293 280.379 71.784C280.859 71.5387 281.248 71.2293 281.547 70.856V69.784C280.757 69.272 279.92 69.016 279.035 69.016C278.331 69.016 277.771 69.1547 277.355 69.432C276.949 69.7093 276.747 70.088 276.747 70.568C276.747 71.0693 276.944 71.4587 277.339 71.736C277.733 72.0133 278.24 72.152 278.859 72.152ZM278.539 73.192C277.717 73.192 277.019 72.968 276.443 72.52C275.877 72.0507 275.595 71.4213 275.595 70.632C275.595 69.8533 275.893 69.2293 276.491 68.76C277.088 68.3013 277.845 68.072 278.763 68.072C279.765 68.072 280.693 68.3227 281.547 68.824V68.056C281.547 66.7653 280.699 66.12 279.003 66.12C278.096 66.12 277.253 66.3813 276.475 66.904V65.784C277.232 65.3147 278.155 65.08 279.243 65.08C280.299 65.08 281.136 65.3307 281.755 65.832C282.384 66.3227 282.699 67.0267 282.699 67.944V71.128C282.699 71.4267 282.763 71.6613 282.891 71.832C283.029 72.0027 283.211 72.088 283.435 72.088C283.605 72.088 283.755 72.056 283.883 71.992V72.888C283.712 73.0053 283.456 73.064 283.115 73.064C282.731 73.064 282.405 72.9627 282.139 72.76C281.883 72.5467 281.723 72.2373 281.659 71.832C280.88 72.7387 279.84 73.192 278.539 73.192ZM294.305 73H289.969V65.272H294.033C294.769 65.272 295.34 65.4533 295.745 65.816C296.161 66.168 296.369 66.6427 296.369 67.24C296.369 68.072 296.049 68.6373 295.409 68.936C296.391 69.224 296.881 69.8853 296.881 70.92C296.881 71.5707 296.657 72.0827 296.209 72.456C295.761 72.8187 295.127 73 294.305 73ZM291.121 69.512V71.992H294.065C294.588 71.992 294.993 71.8853 295.281 71.672C295.569 71.4587 295.713 71.1547 295.713 70.76C295.713 70.3653 295.569 70.0613 295.281 69.848C294.993 69.624 294.588 69.512 294.065 69.512H291.121ZM291.121 66.28V68.552H293.713C294.193 68.552 294.567 68.456 294.833 68.264C295.1 68.0613 295.233 67.7787 295.233 67.416C295.233 66.6587 294.727 66.28 293.713 66.28H291.121ZM300.356 73H299.204V65.272H300.356V68.52H305.108V65.272H306.26V73H305.108V69.56H300.356V73ZM309.417 76.264C308.862 76.264 308.452 76.1893 308.185 76.04V74.968C308.516 75.1387 308.868 75.224 309.241 75.224C309.71 75.224 310.116 75.0267 310.457 74.632C310.798 74.248 311.156 73.608 311.529 72.712L308.089 65.272H309.369L312.105 71.352L314.761 65.272H316.009L312.185 73.864C311.492 75.464 310.569 76.264 309.417 76.264ZM320.868 73H319.716V66.28H316.916V65.272H323.668V66.28H320.868V73ZM326.59 71.768V76.2H325.438V65.272H326.59V66.504C327.315 65.5547 328.313 65.08 329.582 65.08C330.723 65.08 331.657 65.4747 332.382 66.264C333.107 67.0533 333.47 68.008 333.47 69.128C333.47 70.2587 333.107 71.2187 332.382 72.008C331.657 72.7973 330.723 73.192 329.582 73.192C328.313 73.192 327.315 72.7173 326.59 71.768ZM326.59 67.864V70.408C326.814 70.92 327.177 71.3413 327.678 71.672C328.179 71.992 328.723 72.152 329.31 72.152C330.174 72.152 330.883 71.864 331.438 71.288C332.003 70.6907 332.286 69.9707 332.286 69.128C332.286 68.2853 332.003 67.5707 331.438 66.984C330.883 66.408 330.174 66.12 329.31 66.12C328.734 66.12 328.195 66.2853 327.694 66.616C327.193 66.936 326.825 67.352 326.59 67.864ZM336.938 73H335.786V65.272H336.938V73ZM335.786 63.192C335.637 63.032 335.562 62.84 335.562 62.616C335.562 62.392 335.637 62.2 335.786 62.04C335.946 61.88 336.138 61.8 336.362 61.8C336.586 61.8 336.778 61.88 336.938 62.04C337.098 62.2 337.178 62.392 337.178 62.616C337.178 62.84 337.098 63.032 336.938 63.192C336.778 63.3413 336.586 63.416 336.362 63.416C336.138 63.416 335.946 63.3413 335.786 63.192ZM350.341 73H339.829V65.272H340.981V71.992H344.501V65.272H345.653V71.992H349.189V65.272H350.341V73ZM354.215 73H353.063V65.272H354.215V68.52H358.967V65.272H360.119V73H358.967V69.56H354.215V73ZM366.748 73H362.844V65.272H363.996V67.864H366.7C367.596 67.864 368.311 68.0987 368.844 68.568C369.378 69.0267 369.644 69.6453 369.644 70.424C369.644 71.2027 369.388 71.8267 368.876 72.296C368.364 72.7653 367.655 73 366.748 73ZM363.996 68.872V71.992H366.54C367.148 71.992 367.623 71.8587 367.964 71.592C368.306 71.3147 368.476 70.9307 368.476 70.44C368.476 69.9387 368.306 69.5547 367.964 69.288C367.623 69.0107 367.148 68.872 366.54 68.872H363.996ZM372.406 66.28C373.184 65.48 374.187 65.08 375.414 65.08C376.64 65.08 377.643 65.48 378.422 66.28C379.2 67.0587 379.59 68.0133 379.59 69.144C379.59 70.2747 379.2 71.2293 378.422 72.008C377.632 72.7973 376.63 73.192 375.414 73.192C374.198 73.192 373.195 72.7973 372.406 72.008C371.627 71.2293 371.238 70.2747 371.238 69.144C371.238 68.0133 371.627 67.0587 372.406 66.28ZM378.406 69.144C378.406 68.2907 378.123 67.5707 377.558 66.984C376.992 66.408 376.278 66.12 375.414 66.12C374.55 66.12 373.835 66.408 373.27 66.984C372.704 67.5707 372.422 68.2907 372.422 69.144C372.422 69.9867 372.704 70.7013 373.27 71.288C373.835 71.864 374.55 72.152 375.414 72.152C376.278 72.152 376.992 71.864 377.558 71.288C378.123 70.7013 378.406 69.9867 378.406 69.144ZM382.855 73H381.735V65.272H382.855L385.943 68.856L389.047 65.272H390.167V73H389.047V66.856L386.167 70.2H385.719L382.855 66.856V73ZM393.323 76.264C392.769 76.264 392.358 76.1893 392.091 76.04V74.968C392.422 75.1387 392.774 75.224 393.147 75.224C393.617 75.224 394.022 75.0267 394.363 74.632C394.705 74.248 395.062 73.608 395.435 72.712L391.995 65.272H393.275L396.011 71.352L398.667 65.272H399.915L396.091 73.864C395.398 75.464 394.475 76.264 393.323 76.264ZM66.512 91.768V96.2H65.36V85.272H66.512V86.504C67.2373 85.5547 68.2347 85.08 69.504 85.08C70.6453 85.08 71.5787 85.4747 72.304 86.264C73.0293 87.0533 73.392 88.008 73.392 89.128C73.392 90.2587 73.0293 91.2187 72.304 92.008C71.5787 92.7973 70.6453 93.192 69.504 93.192C68.2347 93.192 67.2373 92.7173 66.512 91.768ZM66.512 87.864V90.408C66.736 90.92 67.0987 91.3413 67.6 91.672C68.1013 91.992 68.6453 92.152 69.232 92.152C70.096 92.152 70.8053 91.864 71.36 91.288C71.9253 90.6907 72.208 89.9707 72.208 89.128C72.208 88.2853 71.9253 87.5707 71.36 86.984C70.8053 86.408 70.096 86.12 69.232 86.12C68.656 86.12 68.1173 86.2853 67.616 86.616C67.1147 86.936 66.7467 87.352 66.512 87.864ZM78.1399 92.152C78.6732 92.152 79.1799 92.0293 79.6599 91.784C80.1399 91.5387 80.5292 91.2293 80.8279 90.856V89.784C80.0385 89.272 79.2012 89.016 78.3159 89.016C77.6119 89.016 77.0519 89.1547 76.6359 89.432C76.2305 89.7093 76.0279 90.088 76.0279 90.568C76.0279 91.0693 76.2252 91.4587 76.6199 91.736C77.0145 92.0133 77.5212 92.152 78.1399 92.152ZM77.8199 93.192C76.9985 93.192 76.2999 92.968 75.7239 92.52C75.1585 92.0507 74.8759 91.4213 74.8759 90.632C74.8759 89.8533 75.1745 89.2293 75.7719 88.76C76.3692 88.3013 77.1265 88.072 78.0439 88.072C79.0465 88.072 79.9745 88.3227 80.8279 88.824V88.056C80.8279 86.7653 79.9799 86.12 78.2839 86.12C77.3772 86.12 76.5345 86.3813 75.7559 86.904V85.784C76.5132 85.3147 77.4359 85.08 78.5239 85.08C79.5799 85.08 80.4172 85.3307 81.0359 85.832C81.6652 86.3227 81.9799 87.0267 81.9799 87.944V91.128C81.9799 91.4267 82.0439 91.6613 82.1719 91.832C82.3105 92.0027 82.4919 92.088 82.7159 92.088C82.8865 92.088 83.0359 92.056 83.1639 91.992V92.888C82.9932 93.0053 82.7372 93.064 82.3959 93.064C82.0119 93.064 81.6865 92.9627 81.4199 92.76C81.1639 92.5467 81.0039 92.2373 80.9399 91.832C80.1612 92.7387 79.1212 93.192 77.8199 93.192ZM85.1279 95.288H84.0239V91.992H84.9999C85.8532 90.8613 86.2905 88.984 86.3119 86.36L86.3279 85.272H92.0719V91.992H93.5119V95.288H92.3919V93H85.1279V95.288ZM86.2799 91.992H90.9199V86.28H87.3999V86.744C87.3999 89.048 87.0265 90.7973 86.2799 91.992ZM96.7349 93H95.5829V85.272H96.7349V93ZM95.5829 83.192C95.4335 83.032 95.3589 82.84 95.3589 82.616C95.3589 82.392 95.4335 82.2 95.5829 82.04C95.7429 81.88 95.9349 81.8 96.1589 81.8C96.3829 81.8 96.5749 81.88 96.7349 82.04C96.8949 82.2 96.9749 82.392 96.9749 82.616C96.9749 82.84 96.8949 83.032 96.7349 83.192C96.5749 83.3413 96.3829 83.416 96.1589 83.416C95.9349 83.416 95.7429 83.3413 95.5829 83.192ZM100.234 86.28C101.012 85.48 102.015 85.08 103.242 85.08C104.468 85.08 105.471 85.48 106.25 86.28C107.028 87.0587 107.418 88.0133 107.418 89.144C107.418 90.2747 107.028 91.2293 106.25 92.008C105.46 92.7973 104.458 93.192 103.242 93.192C102.026 93.192 101.023 92.7973 100.234 92.008C99.455 91.2293 99.0656 90.2747 99.0656 89.144C99.0656 88.0133 99.455 87.0587 100.234 86.28ZM106.234 89.144C106.234 88.2907 105.951 87.5707 105.386 86.984C104.82 86.408 104.106 86.12 103.242 86.12C102.378 86.12 101.663 86.408 101.098 86.984C100.532 87.5707 100.25 88.2907 100.25 89.144C100.25 89.9867 100.532 90.7013 101.098 91.288C101.663 91.864 102.378 92.152 103.242 92.152C104.106 92.152 104.82 91.864 105.386 91.288C105.951 90.7013 106.234 89.9867 106.234 89.144ZM114.934 93H113.782V85.272H114.934V88.52H119.686V85.272H120.838V93H119.686V89.56H114.934V93ZM126.171 92.152C126.704 92.152 127.211 92.0293 127.691 91.784C128.171 91.5387 128.56 91.2293 128.859 90.856V89.784C128.07 89.272 127.232 89.016 126.347 89.016C125.643 89.016 125.083 89.1547 124.667 89.432C124.262 89.7093 124.059 90.088 124.059 90.568C124.059 91.0693 124.256 91.4587 124.651 91.736C125.046 92.0133 125.552 92.152 126.171 92.152ZM125.851 93.192C125.03 93.192 124.331 92.968 123.755 92.52C123.19 92.0507 122.907 91.4213 122.907 90.632C122.907 89.8533 123.206 89.2293 123.803 88.76C124.4 88.3013 125.158 88.072 126.075 88.072C127.078 88.072 128.006 88.3227 128.859 88.824V88.056C128.859 86.7653 128.011 86.12 126.315 86.12C125.408 86.12 124.566 86.3813 123.787 86.904V85.784C124.544 85.3147 125.467 85.08 126.555 85.08C127.611 85.08 128.448 85.3307 129.067 85.832C129.696 86.3227 130.011 87.0267 130.011 87.944V91.128C130.011 91.4267 130.075 91.6613 130.203 91.832C130.342 92.0027 130.523 92.088 130.747 92.088C130.918 92.088 131.067 92.056 131.195 91.992V92.888C131.024 93.0053 130.768 93.064 130.427 93.064C130.043 93.064 129.718 92.9627 129.451 92.76C129.195 92.5467 129.035 92.2373 128.971 91.832C128.192 92.7387 127.152 93.192 125.851 93.192ZM138.434 93H137.282V85.272H144.226V93H143.074V86.28H138.434V93ZM150.634 93.192C149.429 93.192 148.415 92.8133 147.594 92.056C146.783 91.3093 146.378 90.3387 146.378 89.144C146.378 87.992 146.741 87.0267 147.466 86.248C148.202 85.4693 149.146 85.08 150.298 85.08C150.917 85.08 151.466 85.208 151.946 85.464C152.426 85.7093 152.805 86.0347 153.082 86.44C153.359 86.8453 153.567 87.2773 153.706 87.736C153.845 88.184 153.914 88.6373 153.914 89.096V89.416H147.562C147.626 90.248 147.957 90.9147 148.554 91.416C149.162 91.9067 149.93 92.152 150.858 92.152C151.754 92.152 152.581 91.912 153.338 91.432V92.456C152.709 92.9467 151.807 93.192 150.634 93.192ZM147.578 88.472H152.746C152.714 87.8747 152.49 87.336 152.074 86.856C151.679 86.3653 151.071 86.12 150.25 86.12C149.482 86.12 148.853 86.3547 148.362 86.824C147.882 87.304 147.621 87.8533 147.578 88.472ZM157.231 91.768V96.2H156.079V85.272H157.231V86.504C157.956 85.5547 158.953 85.08 160.223 85.08C161.364 85.08 162.297 85.4747 163.023 86.264C163.748 87.0533 164.111 88.008 164.111 89.128C164.111 90.2587 163.748 91.2187 163.023 92.008C162.297 92.7973 161.364 93.192 160.223 93.192C158.953 93.192 157.956 92.7173 157.231 91.768ZM157.231 87.864V90.408C157.455 90.92 157.817 91.3413 158.319 91.672C158.82 91.992 159.364 92.152 159.951 92.152C160.815 92.152 161.524 91.864 162.079 91.288C162.644 90.6907 162.927 89.9707 162.927 89.128C162.927 88.2853 162.644 87.5707 162.079 86.984C161.524 86.408 160.815 86.12 159.951 86.12C159.375 86.12 158.836 86.2853 158.335 86.616C157.833 86.936 157.465 87.352 157.231 87.864ZM167.579 93H166.427V85.272H167.579V93ZM166.427 83.192C166.277 83.032 166.203 82.84 166.203 82.616C166.203 82.392 166.277 82.2 166.427 82.04C166.587 81.88 166.779 81.8 167.003 81.8C167.227 81.8 167.419 81.88 167.579 82.04C167.739 82.2 167.819 82.392 167.819 82.616C167.819 82.84 167.739 83.032 167.579 83.192C167.419 83.3413 167.227 83.416 167.003 83.416C166.779 83.416 166.587 83.3413 166.427 83.192ZM171.077 86.28C171.856 85.48 172.859 85.08 174.085 85.08C175.312 85.08 176.315 85.48 177.093 86.28C177.872 87.0587 178.261 88.0133 178.261 89.144C178.261 90.2747 177.872 91.2293 177.093 92.008C176.304 92.7973 175.301 93.192 174.085 93.192C172.869 93.192 171.867 92.7973 171.077 92.008C170.299 91.2293 169.909 90.2747 169.909 89.144C169.909 88.0133 170.299 87.0587 171.077 86.28ZM177.077 89.144C177.077 88.2907 176.795 87.5707 176.229 86.984C175.664 86.408 174.949 86.12 174.085 86.12C173.221 86.12 172.507 86.408 171.941 86.984C171.376 87.5707 171.093 88.2907 171.093 89.144C171.093 89.9867 171.376 90.7013 171.941 91.288C172.507 91.864 173.221 92.152 174.085 92.152C174.949 92.152 175.664 91.864 176.229 91.288C176.795 90.7013 177.077 89.9867 177.077 89.144ZM180.237 95.288H179.133V91.992H180.109C180.963 90.8613 181.4 88.984 181.421 86.36L181.437 85.272H187.181V91.992H188.621V95.288H187.501V93H180.237V95.288ZM181.389 91.992H186.029V86.28H182.509V86.744C182.509 89.048 182.136 90.7973 181.389 91.992ZM195.887 93H194.735V85.272H201.679V93H200.527V86.28H195.887V93ZM205.543 91.768V96.2H204.391V85.272H205.543V86.504C206.269 85.5547 207.266 85.08 208.535 85.08C209.677 85.08 210.61 85.4747 211.335 86.264C212.061 87.0533 212.423 88.008 212.423 89.128C212.423 90.2587 212.061 91.2187 211.335 92.008C210.61 92.7973 209.677 93.192 208.535 93.192C207.266 93.192 206.269 92.7173 205.543 91.768ZM205.543 87.864V90.408C205.767 90.92 206.13 91.3413 206.631 91.672C207.133 91.992 207.677 92.152 208.263 92.152C209.127 92.152 209.837 91.864 210.391 91.288C210.957 90.6907 211.239 89.9707 211.239 89.128C211.239 88.2853 210.957 87.5707 210.391 86.984C209.837 86.408 209.127 86.12 208.263 86.12C207.687 86.12 207.149 86.2853 206.647 86.616C206.146 86.936 205.778 87.352 205.543 87.864ZM215.171 86.28C215.95 85.48 216.952 85.08 218.179 85.08C219.406 85.08 220.408 85.48 221.187 86.28C221.966 87.0587 222.355 88.0133 222.355 89.144C222.355 90.2747 221.966 91.2293 221.187 92.008C220.398 92.7973 219.395 93.192 218.179 93.192C216.963 93.192 215.96 92.7973 215.171 92.008C214.392 91.2293 214.003 90.2747 214.003 89.144C214.003 88.0133 214.392 87.0587 215.171 86.28ZM221.171 89.144C221.171 88.2907 220.888 87.5707 220.323 86.984C219.758 86.408 219.043 86.12 218.179 86.12C217.315 86.12 216.6 86.408 216.035 86.984C215.47 87.5707 215.187 88.2907 215.187 89.144C215.187 89.9867 215.47 90.7013 216.035 91.288C216.6 91.864 217.315 92.152 218.179 92.152C219.043 92.152 219.758 91.864 220.323 91.288C220.888 90.7013 221.171 89.9867 221.171 89.144ZM228.837 93H224.501V85.272H228.565C229.301 85.272 229.871 85.4533 230.277 85.816C230.693 86.168 230.901 86.6427 230.901 87.24C230.901 88.072 230.581 88.6373 229.941 88.936C230.922 89.224 231.413 89.8853 231.413 90.92C231.413 91.5707 231.189 92.0827 230.741 92.456C230.293 92.8187 229.658 93 228.837 93ZM225.653 89.512V91.992H228.597C229.119 91.992 229.525 91.8853 229.813 91.672C230.101 91.4587 230.245 91.1547 230.245 90.76C230.245 90.3653 230.101 90.0613 229.813 89.848C229.525 89.624 229.119 89.512 228.597 89.512H225.653ZM225.653 86.28V88.552H228.245C228.725 88.552 229.098 88.456 229.365 88.264C229.631 88.0613 229.765 87.7787 229.765 87.416C229.765 86.6587 229.258 86.28 228.245 86.28H225.653ZM237.431 93.192C236.226 93.192 235.212 92.8133 234.391 92.056C233.58 91.3093 233.175 90.3387 233.175 89.144C233.175 87.992 233.538 87.0267 234.263 86.248C234.999 85.4693 235.943 85.08 237.095 85.08C237.714 85.08 238.263 85.208 238.743 85.464C239.223 85.7093 239.602 86.0347 239.879 86.44C240.156 86.8453 240.364 87.2773 240.503 87.736C240.642 88.184 240.711 88.6373 240.711 89.096V89.416H234.359C234.423 90.248 234.754 90.9147 235.351 91.416C235.959 91.9067 236.727 92.152 237.655 92.152C238.551 92.152 239.378 91.912 240.135 91.432V92.456C239.506 92.9467 238.604 93.192 237.431 93.192ZM234.375 88.472H239.543C239.511 87.8747 239.287 87.336 238.871 86.856C238.476 86.3653 237.868 86.12 237.047 86.12C236.279 86.12 235.65 86.3547 235.159 86.824C234.679 87.304 234.418 87.8533 234.375 88.472ZM242.972 95.288H241.868V91.992H242.844C243.697 90.8613 244.134 88.984 244.156 86.36L244.172 85.272H249.916V91.992H251.356V95.288H250.236V93H242.972V95.288ZM244.124 91.992H248.764V86.28H245.244V86.744C245.244 89.048 244.87 90.7973 244.124 91.992ZM256.947 93.192C255.741 93.192 254.728 92.8133 253.907 92.056C253.096 91.3093 252.691 90.3387 252.691 89.144C252.691 87.992 253.053 87.0267 253.779 86.248C254.515 85.4693 255.459 85.08 256.611 85.08C257.229 85.08 257.779 85.208 258.259 85.464C258.739 85.7093 259.117 86.0347 259.395 86.44C259.672 86.8453 259.88 87.2773 260.019 87.736C260.157 88.184 260.227 88.6373 260.227 89.096V89.416H253.875C253.939 90.248 254.269 90.9147 254.867 91.416C255.475 91.9067 256.243 92.152 257.171 92.152C258.067 92.152 258.893 91.912 259.651 91.432V92.456C259.021 92.9467 258.12 93.192 256.947 93.192ZM253.891 88.472H259.059C259.027 87.8747 258.803 87.336 258.387 86.856C257.992 86.3653 257.384 86.12 256.563 86.12C255.795 86.12 255.165 86.3547 254.675 86.824C254.195 87.304 253.933 87.8533 253.891 88.472ZM263.543 93H262.391V85.272H263.543V88.52H268.295V85.272H269.447V93H268.295V89.56H263.543V93ZM273.325 93H272.173V85.272H273.325V88.52H278.077V85.272H279.229V93H278.077V89.56H273.325V93ZM282.658 93H281.346L283.65 89.912C283.02 89.8053 282.535 89.5547 282.194 89.16C281.863 88.7547 281.698 88.2427 281.698 87.624C281.698 86.9093 281.938 86.3387 282.418 85.912C282.908 85.4853 283.591 85.272 284.466 85.272H288.45V93H287.298V90.12H284.818L282.658 93ZM284.642 89.112H287.298V86.28H284.642C284.076 86.28 283.639 86.4027 283.33 86.648C283.031 86.8933 282.882 87.2453 282.882 87.704C282.882 88.1627 283.031 88.5147 283.33 88.76C283.639 88.9947 284.076 89.112 284.642 89.112ZM296.543 91.768V96.2H295.391V85.272H296.543V86.504C297.269 85.5547 298.266 85.08 299.535 85.08C300.677 85.08 301.61 85.4747 302.335 86.264C303.061 87.0533 303.423 88.008 303.423 89.128C303.423 90.2587 303.061 91.2187 302.335 92.008C301.61 92.7973 300.677 93.192 299.535 93.192C298.266 93.192 297.269 92.7173 296.543 91.768ZM296.543 87.864V90.408C296.767 90.92 297.13 91.3413 297.631 91.672C298.133 91.992 298.677 92.152 299.263 92.152C300.127 92.152 300.837 91.864 301.391 91.288C301.957 90.6907 302.239 89.9707 302.239 89.128C302.239 88.2853 301.957 87.5707 301.391 86.984C300.837 86.408 300.127 86.12 299.263 86.12C298.687 86.12 298.149 86.2853 297.647 86.616C297.146 86.936 296.778 87.352 296.543 87.864ZM306.171 86.28C306.95 85.48 307.952 85.08 309.179 85.08C310.406 85.08 311.408 85.48 312.187 86.28C312.966 87.0587 313.355 88.0133 313.355 89.144C313.355 90.2747 312.966 91.2293 312.187 92.008C311.398 92.7973 310.395 93.192 309.179 93.192C307.963 93.192 306.96 92.7973 306.171 92.008C305.392 91.2293 305.003 90.2747 305.003 89.144C305.003 88.0133 305.392 87.0587 306.171 86.28ZM312.171 89.144C312.171 88.2907 311.888 87.5707 311.323 86.984C310.758 86.408 310.043 86.12 309.179 86.12C308.315 86.12 307.6 86.408 307.035 86.984C306.47 87.5707 306.187 88.2907 306.187 89.144C306.187 89.9867 306.47 90.7013 307.035 91.288C307.6 91.864 308.315 92.152 309.179 92.152C310.043 92.152 310.758 91.864 311.323 91.288C311.888 90.7013 312.171 89.9867 312.171 89.144ZM317.527 93.192C316.407 93.192 315.458 93.016 314.679 92.664V91.544C315.543 91.9493 316.444 92.152 317.383 92.152C318.172 92.152 318.791 92.0293 319.239 91.784C319.698 91.528 319.927 91.176 319.927 90.728C319.927 90.3227 319.74 90.008 319.367 89.784C318.994 89.56 318.482 89.448 317.831 89.448H316.487V88.44H317.831C318.428 88.44 318.876 88.3387 319.175 88.136C319.484 87.9333 319.639 87.6613 319.639 87.32C319.639 86.52 318.914 86.12 317.463 86.12C316.599 86.12 315.751 86.296 314.919 86.648V85.576C315.655 85.2453 316.578 85.08 317.687 85.08C318.572 85.08 319.314 85.2667 319.911 85.64C320.508 86.0133 320.807 86.504 320.807 87.112C320.775 87.6133 320.652 87.992 320.439 88.248C320.226 88.4933 319.932 88.696 319.559 88.856C320.604 89.1973 321.127 89.848 321.127 90.808C321.127 91.5227 320.796 92.0987 320.135 92.536C319.484 92.9733 318.615 93.192 317.527 93.192ZM324.782 93H323.63V85.272H324.782V93ZM323.63 83.192C323.48 83.032 323.406 82.84 323.406 82.616C323.406 82.392 323.48 82.2 323.63 82.04C323.79 81.88 323.982 81.8 324.206 81.8C324.43 81.8 324.622 81.88 324.782 82.04C324.942 82.2 325.022 82.392 325.022 82.616C325.022 82.84 324.942 83.032 324.782 83.192C324.622 83.3413 324.43 83.416 324.206 83.416C323.982 83.416 323.79 83.3413 323.63 83.192ZM328.825 93H327.673V85.272H333.481V86.28H328.825V93ZM336.575 91.768V96.2H335.423V85.272H336.575V86.504C337.3 85.5547 338.297 85.08 339.567 85.08C340.708 85.08 341.641 85.4747 342.367 86.264C343.092 87.0533 343.455 88.008 343.455 89.128C343.455 90.2587 343.092 91.2187 342.367 92.008C341.641 92.7973 340.708 93.192 339.567 93.192C338.297 93.192 337.3 92.7173 336.575 91.768ZM336.575 87.864V90.408C336.799 90.92 337.161 91.3413 337.663 91.672C338.164 91.992 338.708 92.152 339.295 92.152C340.159 92.152 340.868 91.864 341.423 91.288C341.988 90.6907 342.271 89.9707 342.271 89.128C342.271 88.2853 341.988 87.5707 341.423 86.984C340.868 86.408 340.159 86.12 339.295 86.12C338.719 86.12 338.18 86.2853 337.679 86.616C337.177 86.936 336.809 87.352 336.575 87.864ZM348.202 92.152C348.736 92.152 349.242 92.0293 349.722 91.784C350.202 91.5387 350.592 91.2293 350.89 90.856V89.784C350.101 89.272 349.264 89.016 348.378 89.016C347.674 89.016 347.114 89.1547 346.698 89.432C346.293 89.7093 346.09 90.088 346.09 90.568C346.09 91.0693 346.288 91.4587 346.682 91.736C347.077 92.0133 347.584 92.152 348.202 92.152ZM347.882 93.192C347.061 93.192 346.362 92.968 345.786 92.52C345.221 92.0507 344.938 91.4213 344.938 90.632C344.938 89.8533 345.237 89.2293 345.834 88.76C346.432 88.3013 347.189 88.072 348.106 88.072C349.109 88.072 350.037 88.3227 350.89 88.824V88.056C350.89 86.7653 350.042 86.12 348.346 86.12C347.44 86.12 346.597 86.3813 345.818 86.904V85.784C346.576 85.3147 347.498 85.08 348.586 85.08C349.642 85.08 350.48 85.3307 351.098 85.832C351.728 86.3227 352.042 87.0267 352.042 87.944V91.128C352.042 91.4267 352.106 91.6613 352.234 91.832C352.373 92.0027 352.554 92.088 352.778 92.088C352.949 92.088 353.098 92.056 353.226 91.992V92.888C353.056 93.0053 352.8 93.064 352.458 93.064C352.074 93.064 351.749 92.9627 351.482 92.76C351.226 92.5467 351.066 92.2373 351.002 91.832C350.224 92.7387 349.184 93.192 347.882 93.192ZM365.606 93H355.094V85.272H356.246V91.992H359.766V85.272H360.918V91.992H364.454V85.272H365.606V93ZM368.761 96.264C368.206 96.264 367.795 96.1893 367.529 96.04V94.968C367.859 95.1387 368.211 95.224 368.585 95.224C369.054 95.224 369.459 95.0267 369.801 94.632C370.142 94.248 370.499 93.608 370.873 92.712L367.433 85.272H368.713L371.449 91.352L374.105 85.272H375.353L371.529 93.864C370.835 95.464 369.913 96.264 368.761 96.264ZM66.512 113H65.36V105.272H72.304V113H71.152V106.28H66.512V113ZM76.1683 111.768V116.2H75.0163V105.272H76.1683V106.504C76.8936 105.555 77.8909 105.08 79.1603 105.08C80.3016 105.08 81.2349 105.475 81.9603 106.264C82.6856 107.053 83.0483 108.008 83.0483 109.128C83.0483 110.259 82.6856 111.219 81.9603 112.008C81.2349 112.797 80.3016 113.192 79.1603 113.192C77.8909 113.192 76.8936 112.717 76.1683 111.768ZM76.1683 107.864V110.408C76.3923 110.92 76.7549 111.341 77.2563 111.672C77.7576 111.992 78.3016 112.152 78.8883 112.152C79.7523 112.152 80.4616 111.864 81.0163 111.288C81.5816 110.691 81.8643 109.971 81.8643 109.128C81.8643 108.285 81.5816 107.571 81.0163 106.984C80.4616 106.408 79.7523 106.12 78.8883 106.12C78.3123 106.12 77.7736 106.285 77.2723 106.616C76.7709 106.936 76.4029 107.352 76.1683 107.864ZM86.2601 113H85.1881V105.272H86.3401V111.304L91.2841 105.272H92.3561V113H91.2041V106.984L86.2601 113ZM103.634 113H99.2975V105.272H103.362C104.098 105.272 104.668 105.453 105.074 105.816C105.49 106.168 105.698 106.643 105.698 107.24C105.698 108.072 105.378 108.637 104.738 108.936C105.719 109.224 106.21 109.885 106.21 110.92C106.21 111.571 105.986 112.083 105.538 112.456C105.09 112.819 104.455 113 103.634 113ZM100.45 109.512V111.992H103.394C103.916 111.992 104.322 111.885 104.61 111.672C104.898 111.459 105.042 111.155 105.042 110.76C105.042 110.365 104.898 110.061 104.61 109.848C104.322 109.624 103.916 109.512 103.394 109.512H100.45ZM100.45 106.28V108.552H103.042C103.522 108.552 103.895 108.456 104.162 108.264C104.428 108.061 104.562 107.779 104.562 107.416C104.562 106.659 104.055 106.28 103.042 106.28H100.45ZM109.604 113H108.532V105.272H109.684V111.304L114.628 105.272H115.7V113H114.548V106.984L109.604 113ZM122.199 113.192C120.876 113.192 119.847 112.733 119.111 111.816C118.375 110.899 118.007 109.651 118.007 108.072C118.007 106.045 118.524 104.557 119.559 103.608C119.911 103.256 120.524 102.904 121.399 102.552C121.783 102.413 122.167 102.296 122.551 102.2C122.945 102.093 123.367 101.992 123.815 101.896C123.953 101.864 124.188 101.816 124.519 101.752C124.86 101.688 125.1 101.645 125.239 101.624V102.696C124.14 102.909 123.292 103.085 122.695 103.224C121.511 103.501 120.631 103.944 120.055 104.552C119.457 105.181 119.137 106.136 119.095 107.416C119.415 106.861 119.873 106.424 120.471 106.104C121.079 105.784 121.761 105.624 122.519 105.624C123.532 105.624 124.38 105.965 125.062 106.648C125.745 107.32 126.087 108.184 126.087 109.24C126.087 110.403 125.713 111.352 124.967 112.088C124.22 112.824 123.297 113.192 122.199 113.192ZM122.199 112.152C122.956 112.152 123.596 111.891 124.119 111.368C124.652 110.835 124.919 110.152 124.919 109.32C124.919 108.52 124.663 107.88 124.151 107.4C123.649 106.909 123.02 106.664 122.263 106.664C121.569 106.664 120.945 106.872 120.391 107.288C119.836 107.683 119.436 108.163 119.191 108.728C119.244 109.816 119.527 110.659 120.039 111.256C120.561 111.853 121.281 112.152 122.199 112.152ZM128.843 106.28C129.622 105.48 130.624 105.08 131.851 105.08C133.078 105.08 134.08 105.48 134.859 106.28C135.638 107.059 136.027 108.013 136.027 109.144C136.027 110.275 135.638 111.229 134.859 112.008C134.07 112.797 133.067 113.192 131.851 113.192C130.635 113.192 129.632 112.797 128.843 112.008C128.064 111.229 127.675 110.275 127.675 109.144C127.675 108.013 128.064 107.059 128.843 106.28ZM134.843 109.144C134.843 108.291 134.56 107.571 133.995 106.984C133.43 106.408 132.715 106.12 131.851 106.12C130.987 106.12 130.272 106.408 129.707 106.984C129.142 107.571 128.859 108.291 128.859 109.144C128.859 109.987 129.142 110.701 129.707 111.288C130.272 111.864 130.987 112.152 131.851 112.152C132.715 112.152 133.43 111.864 133.995 111.288C134.56 110.701 134.843 109.987 134.843 109.144ZM139.325 111.768V116.2H138.173V105.272H139.325V106.504C140.05 105.555 141.047 105.08 142.317 105.08C143.458 105.08 144.391 105.475 145.117 106.264C145.842 107.053 146.205 108.008 146.205 109.128C146.205 110.259 145.842 111.219 145.117 112.008C144.391 112.797 143.458 113.192 142.317 113.192C141.047 113.192 140.05 112.717 139.325 111.768ZM139.325 107.864V110.408C139.549 110.92 139.911 111.341 140.413 111.672C140.914 111.992 141.458 112.152 142.045 112.152C142.909 112.152 143.618 111.864 144.173 111.288C144.738 110.691 145.021 109.971 145.021 109.128C145.021 108.285 144.738 107.571 144.173 106.984C143.618 106.408 142.909 106.12 142.045 106.12C141.469 106.12 140.93 106.285 140.429 106.616C139.927 106.936 139.559 107.352 139.325 107.864ZM149.672 113H148.52V105.272H149.672V113ZM148.52 103.192C148.371 103.032 148.296 102.84 148.296 102.616C148.296 102.392 148.371 102.2 148.52 102.04C148.68 101.88 148.872 101.8 149.096 101.8C149.32 101.8 149.512 101.88 149.672 102.04C149.832 102.2 149.912 102.392 149.912 102.616C149.912 102.84 149.832 103.032 149.672 103.192C149.512 103.341 149.32 103.416 149.096 103.416C148.872 103.416 148.68 103.341 148.52 103.192ZM158.19 113H157.006V101.8H165.79V113H164.606V102.872H158.19V113ZM169.871 111.768V116.2H168.719V105.272H169.871V106.504C170.597 105.555 171.594 105.08 172.863 105.08C174.005 105.08 174.938 105.475 175.663 106.264C176.389 107.053 176.751 108.008 176.751 109.128C176.751 110.259 176.389 111.219 175.663 112.008C174.938 112.797 174.005 113.192 172.863 113.192C171.594 113.192 170.597 112.717 169.871 111.768ZM169.871 107.864V110.408C170.095 110.92 170.458 111.341 170.959 111.672C171.461 111.992 172.005 112.152 172.591 112.152C173.455 112.152 174.165 111.864 174.719 111.288C175.285 110.691 175.567 109.971 175.567 109.128C175.567 108.285 175.285 107.571 174.719 106.984C174.165 106.408 173.455 106.12 172.591 106.12C172.015 106.12 171.477 106.285 170.975 106.616C170.474 106.936 170.106 107.352 169.871 107.864ZM182.587 113.192C181.382 113.192 180.369 112.813 179.547 112.056C178.737 111.309 178.331 110.339 178.331 109.144C178.331 107.992 178.694 107.027 179.419 106.248C180.155 105.469 181.099 105.08 182.251 105.08C182.87 105.08 183.419 105.208 183.899 105.464C184.379 105.709 184.758 106.035 185.035 106.44C185.313 106.845 185.521 107.277 185.659 107.736C185.798 108.184 185.867 108.637 185.867 109.096V109.416H179.515C179.579 110.248 179.91 110.915 180.507 111.416C181.115 111.907 181.883 112.152 182.811 112.152C183.707 112.152 184.534 111.912 185.291 111.432V112.456C184.662 112.947 183.761 113.192 182.587 113.192ZM179.531 108.472H184.699C184.667 107.875 184.443 107.336 184.027 106.856C183.633 106.365 183.025 106.12 182.203 106.12C181.435 106.12 180.806 106.355 180.315 106.824C179.835 107.304 179.574 107.853 179.531 108.472ZM189.152 113H188.032V105.272H189.152L192.24 108.856L195.344 105.272H196.464V113H195.344V106.856L192.464 110.2H192.016L189.152 106.856V113ZM200.516 113H199.364V105.272H200.516V113ZM199.364 103.192C199.215 103.032 199.14 102.84 199.14 102.616C199.14 102.392 199.215 102.2 199.364 102.04C199.524 101.88 199.716 101.8 199.94 101.8C200.164 101.8 200.356 101.88 200.516 102.04C200.676 102.2 200.756 102.392 200.756 102.616C200.756 102.84 200.676 103.032 200.516 103.192C200.356 103.341 200.164 103.416 199.94 103.416C199.716 103.416 199.524 103.341 199.364 103.192ZM203.839 116.264C203.284 116.264 202.874 116.189 202.607 116.04V114.968C202.938 115.139 203.29 115.224 203.663 115.224C204.132 115.224 204.538 115.027 204.879 114.632C205.22 114.248 205.578 113.608 205.951 112.712L202.511 105.272H203.791L206.527 111.352L209.183 105.272H210.431L206.607 113.864C205.914 115.464 204.991 116.264 203.839 116.264ZM213.402 113H212.282V105.272H213.402L216.49 108.856L219.594 105.272H220.714V113H219.594V106.856L216.714 110.2H216.266L213.402 106.856V113ZM230.024 113H228.872V106.28H226.072V105.272H232.824V106.28H230.024V113ZM237.202 112.152C237.736 112.152 238.242 112.029 238.722 111.784C239.202 111.539 239.592 111.229 239.89 110.856V109.784C239.101 109.272 238.264 109.016 237.378 109.016C236.674 109.016 236.114 109.155 235.698 109.432C235.293 109.709 235.09 110.088 235.09 110.568C235.09 111.069 235.288 111.459 235.682 111.736C236.077 112.013 236.584 112.152 237.202 112.152ZM236.882 113.192C236.061 113.192 235.362 112.968 234.786 112.52C234.221 112.051 233.938 111.421 233.938 110.632C233.938 109.853 234.237 109.229 234.834 108.76C235.432 108.301 236.189 108.072 237.106 108.072C238.109 108.072 239.037 108.323 239.89 108.824V108.056C239.89 106.765 239.042 106.12 237.346 106.12C236.44 106.12 235.597 106.381 234.818 106.904V105.784C235.576 105.315 236.498 105.08 237.586 105.08C238.642 105.08 239.48 105.331 240.098 105.832C240.728 106.323 241.042 107.027 241.042 107.944V111.128C241.042 111.427 241.106 111.661 241.234 111.832C241.373 112.003 241.554 112.088 241.778 112.088C241.949 112.088 242.098 112.056 242.226 111.992V112.888C242.056 113.005 241.8 113.064 241.458 113.064C241.074 113.064 240.749 112.963 240.482 112.76C240.226 112.547 240.066 112.237 240.002 111.832C239.224 112.739 238.184 113.192 236.882 113.192ZM245.246 111.768V116.2H244.094V105.272H245.246V106.504C245.972 105.555 246.969 105.08 248.238 105.08C249.38 105.08 250.313 105.475 251.038 106.264C251.764 107.053 252.126 108.008 252.126 109.128C252.126 110.259 251.764 111.219 251.038 112.008C250.313 112.797 249.38 113.192 248.238 113.192C246.969 113.192 245.972 112.717 245.246 111.768ZM245.246 107.864V110.408C245.47 110.92 245.833 111.341 246.334 111.672C246.836 111.992 247.38 112.152 247.966 112.152C248.83 112.152 249.54 111.864 250.094 111.288C250.66 110.691 250.942 109.971 250.942 109.128C250.942 108.285 250.66 107.571 250.094 106.984C249.54 106.408 248.83 106.12 247.966 106.12C247.39 106.12 246.852 106.285 246.35 106.616C245.849 106.936 245.481 107.352 245.246 107.864ZM255.338 113H254.266V105.272H255.418V111.304L260.362 105.272H261.434V113H260.282V106.984L255.338 113ZM268.045 105.144V101.8H269.197V105.144C270.573 105.176 271.656 105.555 272.445 106.28C273.245 106.995 273.645 107.949 273.645 109.144C273.645 110.317 273.25 111.267 272.461 111.992C271.693 112.696 270.605 113.075 269.197 113.128V116.2H268.045V113.128C266.68 113.117 265.592 112.744 264.781 112.008C263.992 111.283 263.597 110.328 263.597 109.144C263.597 107.971 263.992 107.021 264.781 106.296C265.57 105.581 266.658 105.197 268.045 105.144ZM269.197 106.152V112.12C270.157 112.12 270.946 111.859 271.565 111.336C272.194 110.803 272.509 110.072 272.509 109.144C272.509 108.216 272.194 107.485 271.565 106.952C270.936 106.419 270.146 106.152 269.197 106.152ZM268.045 112.12V106.152C267.085 106.152 266.29 106.419 265.661 106.952C265.042 107.475 264.733 108.205 264.733 109.144C264.733 110.083 265.042 110.813 265.661 111.336C266.28 111.859 267.074 112.12 268.045 112.12ZM276.011 116.264C275.456 116.264 275.045 116.189 274.779 116.04V114.968C275.109 115.139 275.461 115.224 275.835 115.224C276.304 115.224 276.709 115.027 277.051 114.632C277.392 114.248 277.749 113.608 278.123 112.712L274.683 105.272H275.963L278.699 111.352L281.355 105.272H282.603L278.779 113.864C278.085 115.464 277.163 116.264 276.011 116.264Z" fill="#1E1E1E"/>
<path fill-rule="evenodd" clip-rule="evenodd" d="M30.9894 1.6588C19.2316 4.52369 24.5818 2.17985 50.724 6.12287C57.4344 7.13604 144.637 15.3145 148.723 15.3145C149.65 15.3145 150.051 15.7997 149.616 16.3926C149.18 16.9855 140.847 18.7438 131.097 20.3011C72.7272 29.6186 28.455 45.3892 9.71232 67.7906C-47.5538 136.235 157.545 173.603 385.148 136.189C505.735 116.368 496.77 78.476 364.782 40.6071C338.142 32.9627 341.039 31.7221 371.405 37.7686C395.709 42.6091 415.001 48.0952 429.287 54.2311C439.383 58.566 447.879 59.2017 442.935 53.344C428.507 36.2521 344.19 17.9826 263.268 14.4152C242.349 13.4914 216.844 13.031 206.59 11.2707C157.521 2.85064 50.2034 -3.02329 30.9894 1.6588ZM255.376 28.185C360.746 48.0586 459.518 86.7175 463.571 101.097C473.035 134.669 141.982 152.146 44.2922 124.622C-48.8111 98.3914 57.4165 26.0593 206.59 20.3011C214.383 19.9986 230.011 26.2124 231.044 25.9809C232.076 25.7474 243.282 25.9049 255.376 28.185Z" fill="#FFD42F"/>
</svg>
