<svg width="410" height="103" viewBox="0 0 410 103" fill="none" xmlns="http://www.w3.org/2000/svg">
<path d="M85.5741 55H80.9981V43.8H88.6461V44.872H82.1821V48.04H85.5741C86.8221 48.04 87.7927 48.36 88.4861 49C89.1901 49.64 89.5421 50.4827 89.5421 51.528C89.5421 52.584 89.1901 53.4267 88.4861 54.056C87.7821 54.6854 86.8114 55 85.5741 55ZM82.1821 49.112V53.928H85.4621C86.3794 53.928 87.0887 53.72 87.5901 53.304C88.1021 52.8774 88.3581 52.28 88.3581 51.512C88.3581 50.7547 88.1021 50.168 87.5901 49.752C87.0887 49.3254 86.3794 49.112 85.4621 49.112H82.1821Z" fill="black"/>
<path d="M92.5383 48.28C93.317 47.48 94.3197 47.08 95.5463 47.08C96.773 47.08 97.7757 47.48 98.5543 48.28C99.333 49.0587 99.7223 50.0134 99.7223 51.144C99.7223 52.2747 99.333 53.2294 98.5543 54.008C97.765 54.7974 96.7623 55.192 95.5463 55.192C94.3303 55.192 93.3277 54.7974 92.5383 54.008C91.7597 53.2294 91.3703 52.2747 91.3703 51.144C91.3703 50.0134 91.7597 49.0587 92.5383 48.28ZM98.5383 51.144C98.5383 50.2907 98.2557 49.5707 97.6903 48.984C97.125 48.408 96.4103 48.12 95.5463 48.12C94.6823 48.12 93.9677 48.408 93.4023 48.984C92.837 49.5707 92.5543 50.2907 92.5543 51.144C92.5543 51.9867 92.837 52.7014 93.4023 53.288C93.9677 53.864 94.6823 54.1521 95.5463 54.1521C96.4103 54.1521 97.125 53.864 97.6903 53.288C98.2557 52.7014 98.5383 51.9867 98.5383 51.144Z" fill="black"/>
<path d="M103.02 55H101.868V47.272H103.02V50.5201H107.772V47.272H108.924V55H107.772V51.56H103.02V55Z" fill="black"/>
<path d="M112.081 58.264C111.526 58.264 111.116 58.1894 110.849 58.0401V56.9681C111.18 57.1387 111.532 57.2241 111.905 57.2241C112.374 57.2241 112.78 57.0267 113.121 56.632C113.462 56.248 113.82 55.608 114.193 54.712L110.753 47.272H112.033L114.769 53.352L117.425 47.272H118.673L114.849 55.864C114.156 57.4641 113.233 58.264 112.081 58.264Z" fill="black"/>
<path d="M123.873 55.192C122.689 55.192 121.708 54.808 120.929 54.04C120.15 53.2614 119.761 52.2907 119.761 51.128C119.761 49.976 120.156 49.016 120.945 48.248C121.724 47.4694 122.705 47.08 123.889 47.08C124.785 47.08 125.564 47.2667 126.225 47.64V48.712C125.532 48.3174 124.806 48.12 124.049 48.12C123.153 48.12 122.412 48.408 121.825 48.984C121.238 49.5387 120.945 50.2587 120.945 51.144C120.945 52.008 121.238 52.728 121.825 53.304C122.422 53.8694 123.164 54.1521 124.049 54.1521C124.902 54.1521 125.676 53.928 126.369 53.48V54.536C125.644 54.9734 124.812 55.192 123.873 55.192Z" fill="black"/>
<path d="M130.184 51.56H129.112L128.904 43.8H130.392L130.184 51.56ZM129.64 55.096C129.405 55.096 129.208 55.016 129.048 54.856C128.888 54.696 128.808 54.4987 128.808 54.264C128.808 54.0294 128.888 53.832 129.048 53.672C129.208 53.512 129.405 53.432 129.64 53.432C129.874 53.432 130.072 53.512 130.232 53.672C130.392 53.832 130.472 54.0294 130.472 54.264C130.472 54.4987 130.392 54.696 130.232 54.856C130.072 55.016 129.874 55.096 129.64 55.096Z" fill="black"/>
<path d="M142.293 55H137.717V43.8H145.365V44.872H138.901V48.04H142.293C143.541 48.04 144.511 48.36 145.205 49C145.909 49.64 146.261 50.4827 146.261 51.528C146.261 52.584 145.909 53.4267 145.205 54.056C144.501 54.6854 143.53 55 142.293 55ZM138.901 49.112V53.928H142.181C143.098 53.928 143.807 53.72 144.309 53.304C144.821 52.8774 145.077 52.28 145.077 51.512C145.077 50.7547 144.821 50.168 144.309 49.752C143.807 49.3254 143.098 49.112 142.181 49.112H138.901Z" fill="black"/>
<path d="M152.345 55.192C151.14 55.192 150.126 54.8134 149.305 54.056C148.494 53.3094 148.089 52.3387 148.089 51.144C148.089 49.992 148.452 49.0267 149.177 48.248C149.913 47.4694 150.857 47.08 152.009 47.08C152.628 47.08 153.177 47.208 153.657 47.464C154.137 47.7094 154.516 48.0347 154.793 48.44C155.07 48.8454 155.278 49.2774 155.417 49.736C155.556 50.1841 155.625 50.6374 155.625 51.096V51.416H149.273C149.337 52.248 149.668 52.9147 150.265 53.416C150.873 53.9067 151.641 54.1521 152.569 54.1521C153.465 54.1521 154.292 53.9121 155.049 53.432V54.456C154.42 54.9467 153.518 55.192 152.345 55.192ZM149.289 50.472H154.457C154.425 49.8747 154.201 49.336 153.785 48.856C153.39 48.3654 152.782 48.12 151.961 48.12C151.193 48.12 150.564 48.3547 150.073 48.824C149.593 49.304 149.332 49.8534 149.289 50.472Z" fill="black"/>
<path d="M160.051 55.192C158.931 55.192 157.981 55.016 157.203 54.664V53.544C158.067 53.9494 158.968 54.1521 159.907 54.1521C160.696 54.1521 161.315 54.0294 161.763 53.784C162.221 53.5281 162.451 53.176 162.451 52.728C162.451 52.3227 162.264 52.008 161.891 51.784C161.517 51.5601 161.005 51.448 160.355 51.448H159.011V50.44H160.355C160.952 50.44 161.4 50.3387 161.699 50.136C162.008 49.9334 162.163 49.6614 162.163 49.32C162.163 48.52 161.437 48.12 159.987 48.12C159.123 48.12 158.275 48.296 157.443 48.648V47.576C158.179 47.2454 159.101 47.08 160.211 47.08C161.096 47.08 161.837 47.2667 162.435 47.64C163.032 48.0134 163.331 48.504 163.331 49.112C163.299 49.6134 163.176 49.992 162.963 50.248C162.749 50.4934 162.456 50.696 162.083 50.856C163.128 51.1974 163.651 51.848 163.651 52.808C163.651 53.5227 163.32 54.0987 162.659 54.536C162.008 54.9734 161.139 55.192 160.051 55.192Z" fill="black"/>
<path d="M165.977 47.272H167.129V50.456L170.809 47.272H172.377L168.297 50.76L172.953 55H171.305L167.129 51.192V55H165.977V47.272Z" fill="black"/>
<path d="M174.71 48.28C175.489 47.48 176.492 47.08 177.718 47.08C178.945 47.08 179.948 47.48 180.726 48.28C181.505 49.0587 181.894 50.0134 181.894 51.144C181.894 52.2747 181.505 53.2294 180.726 54.008C179.937 54.7974 178.934 55.192 177.718 55.192C176.502 55.192 175.5 54.7974 174.71 54.008C173.932 53.2294 173.542 52.2747 173.542 51.144C173.542 50.0134 173.932 49.0587 174.71 48.28ZM180.71 51.144C180.71 50.2907 180.428 49.5707 179.862 48.984C179.297 48.408 178.582 48.12 177.718 48.12C176.854 48.12 176.14 48.408 175.574 48.984C175.009 49.5707 174.726 50.2907 174.726 51.144C174.726 51.9867 175.009 52.7014 175.574 53.288C176.14 53.864 176.854 54.1521 177.718 54.1521C178.582 54.1521 179.297 53.864 179.862 53.288C180.428 52.7014 180.71 51.9867 180.71 51.144Z" fill="black"/>
<path d="M194.552 55H184.04V47.272H185.192V53.992H188.712V47.272H189.864V53.992H193.4V47.272H194.552V55Z" fill="black"/>
<path d="M200.282 55H199.13V48.28H196.33V47.272H203.082V48.28H200.282V55Z" fill="black"/>
<path d="M205.257 48.28C206.036 47.48 207.038 47.08 208.265 47.08C209.492 47.08 210.494 47.48 211.273 48.28C212.052 49.0587 212.441 50.0134 212.441 51.144C212.441 52.2747 212.052 53.2294 211.273 54.008C210.484 54.7974 209.481 55.192 208.265 55.192C207.049 55.192 206.046 54.7974 205.257 54.008C204.478 53.2294 204.089 52.2747 204.089 51.144C204.089 50.0134 204.478 49.0587 205.257 48.28ZM211.257 51.144C211.257 50.2907 210.974 49.5707 210.409 48.984C209.844 48.408 209.129 48.12 208.265 48.12C207.401 48.12 206.686 48.408 206.121 48.984C205.556 49.5707 205.273 50.2907 205.273 51.144C205.273 51.9867 205.556 52.7014 206.121 53.288C206.686 53.864 207.401 54.1521 208.265 54.1521C209.129 54.1521 209.844 53.864 210.409 53.288C210.974 52.7014 211.257 51.9867 211.257 51.144Z" fill="black"/>
<path d="M218.923 55H214.587V47.272H218.651C219.387 47.272 219.957 47.4534 220.363 47.816C220.779 48.168 220.987 48.6427 220.987 49.24C220.987 50.072 220.667 50.6374 220.027 50.936C221.008 51.224 221.499 51.8854 221.499 52.92C221.499 53.5707 221.275 54.0827 220.827 54.456C220.379 54.8187 219.744 55 218.923 55ZM215.739 51.512V53.992H218.683C219.205 53.992 219.611 53.8854 219.899 53.672C220.187 53.4587 220.331 53.1547 220.331 52.76C220.331 52.3654 220.187 52.0614 219.899 51.848C219.611 51.624 219.205 51.512 218.683 51.512H215.739ZM215.739 48.28V50.552H218.331C218.811 50.552 219.184 50.456 219.451 50.264C219.717 50.0614 219.851 49.7787 219.851 49.416C219.851 48.6587 219.344 48.28 218.331 48.28H215.739Z" fill="black"/>
<path d="M224.973 55H223.821V47.272H224.973V50.5201H229.725V47.272H230.877V55H229.725V51.56H224.973V55Z" fill="black"/>
<path d="M234.21 48.28C234.989 47.48 235.992 47.08 237.218 47.08C238.445 47.08 239.448 47.48 240.226 48.28C241.005 49.0587 241.394 50.0134 241.394 51.144C241.394 52.2747 241.005 53.2294 240.226 54.008C239.437 54.7974 238.434 55.192 237.218 55.192C236.002 55.192 235 54.7974 234.21 54.008C233.432 53.2294 233.042 52.2747 233.042 51.144C233.042 50.0134 233.432 49.0587 234.21 48.28ZM240.21 51.144C240.21 50.2907 239.928 49.5707 239.362 48.984C238.797 48.408 238.082 48.12 237.218 48.12C236.354 48.12 235.64 48.408 235.074 48.984C234.509 49.5707 234.226 50.2907 234.226 51.144C234.226 51.9867 234.509 52.7014 235.074 53.288C235.64 53.864 236.354 54.1521 237.218 54.1521C238.082 54.1521 238.797 53.864 239.362 53.288C239.928 52.7014 240.21 51.9867 240.21 51.144Z" fill="black"/>
<path d="M251.31 55.192C250.126 55.192 249.145 54.808 248.366 54.04C247.588 53.2614 247.198 52.2907 247.198 51.128C247.198 49.976 247.593 49.016 248.382 48.248C249.161 47.4694 250.142 47.08 251.326 47.08C252.222 47.08 253.001 47.2667 253.662 47.64V48.712C252.969 48.3174 252.244 48.12 251.486 48.12C250.59 48.12 249.849 48.408 249.262 48.984C248.676 49.5387 248.382 50.2587 248.382 51.144C248.382 52.008 248.676 52.728 249.262 53.304C249.86 53.8694 250.601 54.1521 251.486 54.1521C252.34 54.1521 253.113 53.928 253.806 53.48V54.536C253.081 54.9734 252.249 55.192 251.31 55.192Z" fill="black"/>
<path d="M259.048 55H257.896V48.28H255.096V47.272H261.848V48.28H259.048V55Z" fill="black"/>
<path d="M267.954 55H263.618V47.272H267.682C268.418 47.272 268.988 47.4534 269.394 47.816C269.81 48.168 270.018 48.6427 270.018 49.24C270.018 50.072 269.698 50.6374 269.058 50.936C270.039 51.224 270.53 51.8854 270.53 52.92C270.53 53.5707 270.306 54.0827 269.858 54.456C269.41 54.8187 268.775 55 267.954 55ZM264.77 51.512V53.992H267.714C268.236 53.992 268.642 53.8854 268.93 53.672C269.218 53.4587 269.362 53.1547 269.362 52.76C269.362 52.3654 269.218 52.0614 268.93 51.848C268.642 51.624 268.236 51.512 267.714 51.512H264.77ZM264.77 48.28V50.552H267.362C267.842 50.552 268.215 50.456 268.482 50.264C268.748 50.0614 268.882 49.7787 268.882 49.416C268.882 48.6587 268.375 48.28 267.362 48.28H264.77Z" fill="black"/>
<path d="M273.46 48.28C274.239 47.48 275.242 47.08 276.468 47.08C277.695 47.08 278.698 47.48 279.476 48.28C280.255 49.0587 280.644 50.0134 280.644 51.144C280.644 52.2747 280.255 53.2294 279.476 54.008C278.687 54.7974 277.684 55.192 276.468 55.192C275.252 55.192 274.25 54.7974 273.46 54.008C272.682 53.2294 272.292 52.2747 272.292 51.144C272.292 50.0134 272.682 49.0587 273.46 48.28ZM279.46 51.144C279.46 50.2907 279.178 49.5707 278.612 48.984C278.047 48.408 277.332 48.12 276.468 48.12C275.604 48.12 274.89 48.408 274.324 48.984C273.759 49.5707 273.476 50.2907 273.476 51.144C273.476 51.9867 273.759 52.7014 274.324 53.288C274.89 53.864 275.604 54.1521 276.468 54.1521C277.332 54.1521 278.047 53.864 278.612 53.288C279.178 52.7014 279.46 51.9867 279.46 51.144Z" fill="black"/>
<path d="M283.942 53.768V58.2001H282.79V47.272H283.942V48.504C284.667 47.5547 285.664 47.08 286.934 47.08C288.075 47.08 289.008 47.4747 289.734 48.264C290.459 49.0534 290.822 50.008 290.822 51.128C290.822 52.2587 290.459 53.2187 289.734 54.008C289.008 54.7974 288.075 55.192 286.934 55.192C285.664 55.192 284.667 54.7174 283.942 53.768ZM283.942 49.864V52.408C284.166 52.92 284.528 53.3414 285.03 53.672C285.531 53.992 286.075 54.1521 286.662 54.1521C287.526 54.1521 288.235 53.864 288.79 53.288C289.355 52.6907 289.638 51.9707 289.638 51.128C289.638 50.2854 289.355 49.5707 288.79 48.984C288.235 48.408 287.526 48.12 286.662 48.12C286.086 48.12 285.547 48.2854 285.046 48.616C284.544 48.936 284.176 49.352 283.942 49.864Z" fill="black"/>
<path d="M294.034 55H292.962V47.272H294.114V53.304L299.058 47.272H300.13V55H298.978V48.984L294.034 55Z" fill="black"/>
<path d="M303.972 55H302.852V47.272H303.972L307.06 50.856L310.164 47.272H311.284V55H310.164V48.856L307.284 52.2H306.836L303.972 48.856V55Z" fill="black"/>
<path d="M314.616 48.28C315.395 47.48 316.398 47.08 317.624 47.08C318.851 47.08 319.854 47.48 320.632 48.28C321.411 49.0587 321.8 50.0134 321.8 51.144C321.8 52.2747 321.411 53.2294 320.632 54.008C319.843 54.7974 318.84 55.192 317.624 55.192C316.408 55.192 315.406 54.7974 314.616 54.008C313.838 53.2294 313.448 52.2747 313.448 51.144C313.448 50.0134 313.838 49.0587 314.616 48.28ZM320.616 51.144C320.616 50.2907 320.334 49.5707 319.768 48.984C319.203 48.408 318.488 48.12 317.624 48.12C316.76 48.12 316.046 48.408 315.48 48.984C314.915 49.5707 314.632 50.2907 314.632 51.144C314.632 51.9867 314.915 52.7014 315.48 53.288C316.046 53.864 316.76 54.1521 317.624 54.1521C318.488 54.1521 319.203 53.864 319.768 53.288C320.334 52.7014 320.616 51.9867 320.616 51.144Z" fill="black"/>
<path d="M68.0276 75H66.8756V67.272H73.8196V75H72.6676V68.28H68.0276V75Z" fill="black"/>
<path d="M80.2279 75.1921C79.0226 75.1921 78.0092 74.8134 77.1879 74.056C76.3772 73.3094 75.9719 72.3387 75.9719 71.144C75.9719 69.992 76.3346 69.0267 77.0599 68.248C77.7959 67.4694 78.7399 67.08 79.8919 67.08C80.5106 67.08 81.0599 67.208 81.5399 67.4641C82.0199 67.7094 82.3986 68.0347 82.6759 68.44C82.9532 68.8454 83.1612 69.2774 83.2999 69.736C83.4386 70.184 83.5079 70.6374 83.5079 71.0961V71.416H77.1559C77.2199 72.2481 77.5506 72.9147 78.1479 73.416C78.7559 73.9067 79.5239 74.1521 80.4519 74.1521C81.3479 74.1521 82.1746 73.912 82.9319 73.432V74.4561C82.3026 74.9467 81.4012 75.1921 80.2279 75.1921ZM77.1719 70.472H82.3399C82.3079 69.8747 82.0839 69.336 81.6679 68.856C81.2732 68.3654 80.6652 68.12 79.8439 68.12C79.0759 68.12 78.4466 68.3547 77.9559 68.824C77.4759 69.304 77.2146 69.8534 77.1719 70.472Z" fill="black"/>
<path d="M86.8245 73.7681V78.2001H85.6725V67.272H86.8245V68.504C87.5499 67.5547 88.5472 67.08 89.8165 67.08C90.9578 67.08 91.8912 67.4747 92.6165 68.264C93.3418 69.0534 93.7045 70.008 93.7045 71.128C93.7045 72.2587 93.3418 73.2187 92.6165 74.008C91.8912 74.7974 90.9578 75.1921 89.8165 75.1921C88.5472 75.1921 87.5499 74.7174 86.8245 73.7681ZM86.8245 69.864V72.4081C87.0485 72.92 87.4112 73.3414 87.9125 73.6721C88.4138 73.9921 88.9578 74.1521 89.5445 74.1521C90.4085 74.1521 91.1178 73.864 91.6725 73.288C92.2379 72.6907 92.5205 71.9707 92.5205 71.128C92.5205 70.2854 92.2379 69.5707 91.6725 68.984C91.1178 68.408 90.4085 68.12 89.5445 68.12C88.9685 68.12 88.4298 68.2854 87.9285 68.616C87.4272 68.936 87.0592 69.3521 86.8245 69.864Z" fill="black"/>
<path d="M106.356 75H95.8444V67.272H96.9964V73.9921H100.516V67.272H101.668V73.9921H105.204V67.272H106.356V75Z" fill="black"/>
<path d="M110.151 75H109.079V67.272H110.231V73.3041L115.175 67.272H116.247V75H115.095V68.984L110.151 75Z" fill="black"/>
<path d="M120.041 75H118.969V67.272H120.121V73.3041L125.065 67.272H126.137V75H124.985V68.984L120.041 75ZM122.569 65.96C121.791 65.96 121.161 65.7414 120.681 65.3041C120.201 64.8561 119.956 64.264 119.945 63.528H120.969C120.969 63.976 121.113 64.3387 121.401 64.616C121.689 64.8934 122.073 65.032 122.553 65.032C123.023 65.032 123.401 64.8934 123.689 64.616C123.977 64.3387 124.127 63.976 124.137 63.528H125.145C125.135 64.2534 124.889 64.84 124.409 65.288C123.929 65.736 123.316 65.96 122.569 65.96Z" fill="black"/>
<path d="M134.231 73.7681V78.2001H133.079V67.272H134.231V68.504C134.956 67.5547 135.953 67.08 137.223 67.08C138.364 67.08 139.297 67.4747 140.023 68.264C140.748 69.0534 141.111 70.008 141.111 71.128C141.111 72.2587 140.748 73.2187 140.023 74.008C139.297 74.7974 138.364 75.1921 137.223 75.1921C135.953 75.1921 134.956 74.7174 134.231 73.7681ZM134.231 69.864V72.4081C134.455 72.92 134.817 73.3414 135.319 73.6721C135.82 73.9921 136.364 74.1521 136.951 74.1521C137.815 74.1521 138.524 73.864 139.079 73.288C139.644 72.6907 139.927 71.9707 139.927 71.128C139.927 70.2854 139.644 69.5707 139.079 68.984C138.524 68.408 137.815 68.12 136.951 68.12C136.375 68.12 135.836 68.2854 135.335 68.616C134.833 68.936 134.465 69.3521 134.231 69.864Z" fill="black"/>
<path d="M146.947 75.1921C145.741 75.1921 144.728 74.8134 143.907 74.056C143.096 73.3094 142.691 72.3387 142.691 71.144C142.691 69.992 143.053 69.0267 143.779 68.248C144.515 67.4694 145.459 67.08 146.611 67.08C147.229 67.08 147.779 67.208 148.259 67.4641C148.739 67.7094 149.117 68.0347 149.395 68.44C149.672 68.8454 149.88 69.2774 150.019 69.736C150.157 70.184 150.227 70.6374 150.227 71.0961V71.416H143.875C143.939 72.2481 144.269 72.9147 144.867 73.416C145.475 73.9067 146.243 74.1521 147.171 74.1521C148.067 74.1521 148.893 73.912 149.651 73.432V74.4561C149.021 74.9467 148.12 75.1921 146.947 75.1921ZM143.891 70.472H149.059C149.027 69.8747 148.803 69.336 148.387 68.856C147.992 68.3654 147.384 68.12 146.563 68.12C145.795 68.12 145.165 68.3547 144.675 68.824C144.195 69.304 143.933 69.8534 143.891 70.472Z" fill="black"/>
<path d="M152.391 67.272H153.543V70.456L157.223 67.272H158.791L154.711 70.76L159.367 75H157.719L153.543 71.192V75H152.391V67.272Z" fill="black"/>
<path d="M160.024 75V73.944C160.077 73.9547 160.178 73.96 160.328 73.96C161 73.96 161.458 73.5334 161.704 72.68C161.906 71.9974 162.034 71.0161 162.088 69.736L162.152 67.272H167.928V75H166.776V68.28H163.256L163.208 69.768C163.186 70.344 163.165 70.76 163.144 71.016C163.048 72.0614 162.893 72.8294 162.68 73.32C162.488 73.832 162.194 74.2534 161.8 74.584C161.405 74.904 160.925 75.048 160.36 75.016C160.189 75.016 160.077 75.0107 160.024 75Z" fill="black"/>
<path d="M173.249 74.1521C173.783 74.1521 174.289 74.0294 174.769 73.784C175.249 73.5387 175.639 73.2294 175.937 72.856V71.784C175.148 71.272 174.311 71.016 173.425 71.016C172.721 71.016 172.161 71.1547 171.745 71.432C171.34 71.7094 171.137 72.0881 171.137 72.5681C171.137 73.0694 171.335 73.4587 171.729 73.736C172.124 74.0134 172.631 74.1521 173.249 74.1521ZM172.929 75.1921C172.108 75.1921 171.409 74.9681 170.833 74.5201C170.268 74.0507 169.985 73.4214 169.985 72.632C169.985 71.8534 170.284 71.2294 170.881 70.76C171.479 70.3014 172.236 70.072 173.153 70.072C174.156 70.072 175.084 70.3227 175.937 70.824V70.056C175.937 68.7654 175.089 68.12 173.393 68.12C172.487 68.12 171.644 68.3814 170.865 68.904V67.784C171.623 67.3147 172.545 67.08 173.633 67.08C174.689 67.08 175.527 67.3307 176.145 67.8321C176.775 68.3227 177.089 69.0267 177.089 69.944V73.128C177.089 73.4267 177.153 73.6614 177.281 73.8321C177.42 74.0027 177.601 74.0881 177.825 74.0881C177.996 74.0881 178.145 74.056 178.273 73.9921V74.8881C178.103 75.0054 177.847 75.064 177.505 75.064C177.121 75.064 176.796 74.9627 176.529 74.76C176.273 74.5467 176.113 74.2374 176.049 73.8321C175.271 74.7387 174.231 75.1921 172.929 75.1921Z" fill="black"/>
<path d="M181.261 75H180.141V67.272H181.261L184.349 70.856L187.453 67.272H188.573V75H187.453V68.856L184.573 72.2001H184.125L181.261 68.856V75Z" fill="black"/>
<path d="M192.45 75H191.298V67.272H192.45V70.5201H197.202V67.272H198.354V75H197.202V71.56H192.45V75Z" fill="black"/>
<path d="M202.151 75H201.079V67.272H202.231V73.3041L207.175 67.272H208.247V75H207.095V68.984L202.151 75Z" fill="black"/>
<path d="M212.041 75H210.969V67.272H212.121V73.3041L217.065 67.272H218.137V75H216.985V68.984L212.041 75ZM214.569 65.96C213.791 65.96 213.161 65.7414 212.681 65.3041C212.201 64.8561 211.956 64.264 211.945 63.528H212.969C212.969 63.976 213.113 64.3387 213.401 64.616C213.689 64.8934 214.073 65.032 214.553 65.032C215.023 65.032 215.401 64.8934 215.689 64.616C215.977 64.3387 216.127 63.976 216.137 63.528H217.145C217.135 64.2534 216.889 64.84 216.409 65.288C215.929 65.736 215.316 65.96 214.569 65.96Z" fill="black"/>
<path d="M226.231 73.7681V78.2001H225.079V67.272H226.231V68.504C226.956 67.5547 227.953 67.08 229.223 67.08C230.364 67.08 231.297 67.4747 232.023 68.264C232.748 69.0534 233.111 70.008 233.111 71.128C233.111 72.2587 232.748 73.2187 232.023 74.008C231.297 74.7974 230.364 75.1921 229.223 75.1921C227.953 75.1921 226.956 74.7174 226.231 73.7681ZM226.231 69.864V72.4081C226.455 72.92 226.817 73.3414 227.319 73.6721C227.82 73.9921 228.364 74.1521 228.951 74.1521C229.815 74.1521 230.524 73.864 231.079 73.288C231.644 72.6907 231.927 71.9707 231.927 71.128C231.927 70.2854 231.644 69.5707 231.079 68.984C230.524 68.408 229.815 68.12 228.951 68.12C228.375 68.12 227.836 68.2854 227.335 68.616C226.833 68.936 226.465 69.3521 226.231 69.864Z" fill="black"/>
<path d="M235.859 68.28C236.637 67.48 237.64 67.08 238.867 67.08C240.093 67.08 241.096 67.48 241.875 68.28C242.653 69.0587 243.043 70.0134 243.043 71.144C243.043 72.2747 242.653 73.2294 241.875 74.008C241.085 74.7974 240.083 75.1921 238.867 75.1921C237.651 75.1921 236.648 74.7974 235.859 74.008C235.08 73.2294 234.691 72.2747 234.691 71.144C234.691 70.0134 235.08 69.0587 235.859 68.28ZM241.859 71.144C241.859 70.2907 241.576 69.5707 241.011 68.984C240.445 68.408 239.731 68.12 238.867 68.12C238.003 68.12 237.288 68.408 236.723 68.984C236.157 69.5707 235.875 70.2907 235.875 71.144C235.875 71.9867 236.157 72.7014 236.723 73.288C237.288 73.864 238.003 74.1521 238.867 74.1521C239.731 74.1521 240.445 73.864 241.011 73.288C241.576 72.7014 241.859 71.9867 241.859 71.144Z" fill="black"/>
<path d="M243.93 75V73.944C243.983 73.9547 244.084 73.96 244.234 73.96C244.906 73.96 245.364 73.5334 245.61 72.68C245.812 71.9974 245.94 71.0161 245.994 69.736L246.058 67.272H251.834V75H250.682V68.28H247.162L247.114 69.768C247.092 70.344 247.071 70.76 247.05 71.016C246.954 72.0614 246.799 72.8294 246.586 73.32C246.394 73.832 246.1 74.2534 245.706 74.584C245.311 74.904 244.831 75.048 244.266 75.016C244.095 75.016 243.983 75.0107 243.93 75Z" fill="black"/>
<path d="M255.62 75H254.548V67.272H255.7V73.3041L260.644 67.272H261.716V75H260.564V68.984L255.62 75Z" fill="black"/>
<path d="M264.438 67.272H265.59V70.456L269.27 67.272H270.838L266.758 70.76L271.414 75H269.766L265.59 71.192V75H264.438V67.272Z" fill="black"/>
<path d="M277.409 77.2881H276.305V73.9921H277.281C278.134 72.8614 278.572 70.9841 278.593 68.3601L278.609 67.272H284.353V73.9921H285.793V77.2881H284.673V75H277.409V77.2881ZM278.561 73.9921H283.201V68.28H279.681V68.744C279.681 71.048 279.308 72.7974 278.561 73.9921Z" fill="black"/>
<path d="M286.664 75V73.944C286.717 73.9547 286.819 73.96 286.968 73.96C287.64 73.96 288.099 73.5334 288.344 72.68C288.547 71.9974 288.675 71.0161 288.728 69.736L288.792 67.272H294.568V75H293.416V68.28H289.896L289.848 69.768C289.827 70.344 289.805 70.76 289.784 71.016C289.688 72.0614 289.533 72.8294 289.32 73.32C289.128 73.832 288.835 74.2534 288.44 74.584C288.045 74.904 287.565 75.048 287 75.016C286.829 75.016 286.717 75.0107 286.664 75Z" fill="black"/>
<path d="M297.986 75H296.674L298.978 71.9121C298.349 71.8054 297.863 71.5547 297.522 71.16C297.191 70.7547 297.026 70.2427 297.026 69.6241C297.026 68.9094 297.266 68.3387 297.746 67.912C298.237 67.4854 298.919 67.272 299.794 67.272H303.778V75H302.626V72.12H300.146L297.986 75ZM299.97 71.112H302.626V68.28H299.97C299.405 68.28 298.967 68.4027 298.658 68.648C298.359 68.8934 298.21 69.2454 298.21 69.704C298.21 70.1627 298.359 70.5147 298.658 70.76C298.967 70.9947 299.405 71.112 299.97 71.112Z" fill="black"/>
<path d="M315.055 75H310.719V67.272H314.783C315.519 67.272 316.09 67.4534 316.495 67.816C316.911 68.168 317.119 68.6427 317.119 69.24C317.119 70.0721 316.799 70.6374 316.159 70.9361C317.141 71.2241 317.631 71.8854 317.631 72.92C317.631 73.5707 317.407 74.0827 316.959 74.4561C316.511 74.8187 315.877 75 315.055 75ZM311.871 71.512V73.9921H314.815C315.338 73.9921 315.743 73.8854 316.031 73.6721C316.319 73.4587 316.463 73.1547 316.463 72.76C316.463 72.3654 316.319 72.0614 316.031 71.848C315.743 71.6241 315.338 71.512 314.815 71.512H311.871ZM311.871 68.28V70.552H314.463C314.943 70.552 315.317 70.456 315.583 70.264C315.85 70.0614 315.983 69.7787 315.983 69.416C315.983 68.6587 315.477 68.28 314.463 68.28H311.871Z" fill="black"/>
<path d="M322.562 74.1521C323.095 74.1521 323.602 74.0294 324.082 73.784C324.562 73.5387 324.951 73.2294 325.25 72.856V71.784C324.46 71.272 323.623 71.016 322.738 71.016C322.034 71.016 321.474 71.1547 321.058 71.432C320.652 71.7094 320.45 72.0881 320.45 72.5681C320.45 73.0694 320.647 73.4587 321.042 73.736C321.436 74.0134 321.943 74.1521 322.562 74.1521ZM322.242 75.1921C321.42 75.1921 320.722 74.9681 320.146 74.5201C319.58 74.0507 319.298 73.4214 319.298 72.632C319.298 71.8534 319.596 71.2294 320.194 70.76C320.791 70.3014 321.548 70.072 322.466 70.072C323.468 70.072 324.396 70.3227 325.25 70.824V70.056C325.25 68.7654 324.402 68.12 322.706 68.12C321.799 68.12 320.956 68.3814 320.178 68.904V67.784C320.935 67.3147 321.858 67.08 322.946 67.08C324.002 67.08 324.839 67.3307 325.458 67.8321C326.087 68.3227 326.402 69.0267 326.402 69.944V73.128C326.402 73.4267 326.466 73.6614 326.594 73.8321C326.732 74.0027 326.914 74.0881 327.138 74.0881C327.308 74.0881 327.458 74.056 327.586 73.9921V74.8881C327.415 75.0054 327.159 75.064 326.818 75.064C326.434 75.064 326.108 74.9627 325.842 74.76C325.586 74.5467 325.426 74.2374 325.362 73.8321C324.583 74.7387 323.543 75.1921 322.242 75.1921Z" fill="black"/>
<path d="M333.006 75.1921C331.822 75.1921 330.84 74.8081 330.062 74.0401C329.283 73.2614 328.894 72.2907 328.894 71.128C328.894 69.976 329.288 69.016 330.078 68.248C330.856 67.4694 331.838 67.08 333.022 67.08C333.918 67.08 334.696 67.2667 335.358 67.64V68.712C334.664 68.3174 333.939 68.12 333.182 68.12C332.286 68.12 331.544 68.408 330.958 68.984C330.371 69.5387 330.078 70.2587 330.078 71.144C330.078 72.008 330.371 72.7281 330.958 73.3041C331.555 73.8694 332.296 74.1521 333.182 74.1521C334.035 74.1521 334.808 73.928 335.502 73.48V74.536C334.776 74.9734 333.944 75.1921 333.006 75.1921Z" fill="black"/>
<path fill-rule="evenodd" clip-rule="evenodd" d="M27.0333 1.1315C16.7765 3.08569 21.4437 1.48691 44.2486 4.17653C50.1023 4.86763 126.173 10.4463 129.737 10.4463C130.546 10.4463 130.896 10.7773 130.516 11.1817C130.136 11.5861 122.867 12.7855 114.361 13.8478C63.4428 20.2034 24.8224 30.9609 8.47245 46.2413C-41.4831 92.9287 137.433 118.418 335.98 92.8968C441.173 79.3767 433.353 53.53 318.214 27.6989C294.975 22.4845 297.502 21.6383 323.991 25.7627C345.193 29.0645 362.022 32.8067 374.484 36.9921C383.292 39.949 390.703 40.3826 386.39 36.387C373.804 24.7283 300.251 12.2663 229.66 9.83291C211.411 9.20275 189.162 8.88873 180.217 7.68796C137.412 1.94448 43.7945 -2.06225 27.0333 1.1315ZM222.775 19.2256C314.693 32.7817 400.857 59.1517 404.392 68.9601C412.647 91.8606 123.857 103.782 38.6379 85.0071C-42.5799 67.1147 50.0868 17.7756 180.217 13.8478C187.015 13.6414 200.648 17.88 201.549 17.7221C202.449 17.5628 212.225 17.6702 222.775 19.2256Z" fill="#FFD42F"/>
</svg>
