<svg width="40" height="41" viewBox="0 0 40 41" fill="none" xmlns="http://www.w3.org/2000/svg">
<path d="M34.52 8H5.52002V27H34.52V8Z" fill="white"/>
<path d="M35.0986 19.8755L4.83398 23.0938L6.13732 35.3502L36.402 32.1319L35.0986 19.8755Z" fill="#FFD42F"/>
<path fill-rule="evenodd" clip-rule="evenodd" d="M20 40.6401C31.0457 40.6401 40 31.6858 40 20.6401C40 9.59444 31.0457 0.640137 20 0.640137C8.9543 0.640137 0 9.59444 0 20.6401C0 31.6858 8.9543 40.6401 20 40.6401ZM8 14.8507C8 11.4207 10.7805 8.64014 14.2105 8.64014H25.7895C29.2195 8.64014 32 11.4207 32 14.8507V26.4296C32 29.8596 29.2195 32.6401 25.7895 32.6401H14.2105C10.7805 32.6401 8 29.8596 8 26.4296V14.8507ZM14.2105 10.6401C11.8851 10.6401 10 12.5253 10 14.8507V26.4296C10 28.755 11.8851 30.6401 14.2105 30.6401H25.7895C28.1149 30.6401 30 28.755 30 26.4296V14.8507C30 12.5253 28.1149 10.6401 25.7895 10.6401H14.2105ZM23.2395 26.515C23.4564 26.6068 23.6441 26.6401 23.8068 26.6401C23.9819 26.6401 24.1196 26.6026 24.2238 26.5567C24.6526 26.3787 24.8303 25.9811 24.8597 25.9154L24.862 25.9102C24.8745 25.8852 24.8828 25.856 24.887 25.831L26.8765 15.8084C26.8807 15.7834 26.8848 15.7542 26.8848 15.725C26.8848 15.3204 26.6721 15.1202 26.5428 15.0368C26.1258 14.7657 25.546 14.9784 25.3625 15.0577L14.2138 19.4246C13.8176 19.5622 13.3838 19.9 13.4464 20.4047C13.5173 20.9928 14.1346 21.2264 14.2055 21.2514C14.2096 21.2556 14.2096 21.2556 14.2138 21.2556L16.8068 22.1303C16.8701 22.3362 16.9724 22.6705 17.0875 23.0469L17.088 23.0487L17.0882 23.0493L17.0883 23.0495L17.0885 23.0501C17.3436 23.8843 17.6614 24.9235 17.7588 25.2303C17.8798 25.6099 18.0383 26.0103 18.4136 26.052C18.4762 26.0687 18.5471 26.077 18.6264 26.077C18.8683 26.077 19.0184 25.9936 19.1102 25.8893L20.6135 24.5166L23.1478 26.4608C23.177 26.4816 23.2062 26.5025 23.2395 26.515ZM19.4864 22.5264C20.6455 21.486 24.2598 18.234 24.4405 18.0648C24.5907 17.9272 24.7533 17.7395 24.7283 17.4851L24.7268 17.4757L24.7268 17.4756C24.723 17.4529 24.7189 17.4278 24.7116 17.4058C24.6866 17.2515 24.599 17.1222 24.4697 17.043C24.2028 16.8803 23.8941 17.0054 23.6773 17.1347C23.6762 17.1347 23.6755 17.135 23.6748 17.1353C23.6742 17.1357 23.6736 17.1363 23.6731 17.1368C23.672 17.1378 23.671 17.1389 23.6689 17.1389L17.1061 21.3071L14.4974 20.4297C14.4474 20.4089 14.3848 20.3713 14.3473 20.338C14.389 20.3088 14.4515 20.2712 14.5058 20.2546C14.5067 20.2536 14.5079 20.2528 14.5092 20.2522C14.5108 20.2515 14.5124 20.2509 14.5141 20.2504C14.5172 20.2493 14.5204 20.2483 14.5224 20.2462L25.6878 15.8668C25.6899 15.8647 25.693 15.8637 25.6962 15.8627C25.6993 15.8616 25.7024 15.8606 25.7045 15.8585C25.7837 15.8251 25.9005 15.7918 25.9881 15.7792L24.0403 25.6058C24.0195 25.6433 23.9694 25.7184 23.8943 25.7476C23.8276 25.7726 23.7442 25.7684 23.6358 25.7267L20.8771 23.6115C20.8644 23.6006 20.8512 23.5905 20.8377 23.5813L20.6777 23.4586L19.4864 22.5264ZM19.909 23.9761L19.1716 23.4103L19.0142 24.7924L19.909 23.9761Z" fill="black"/>
</svg>
