<svg width="42" height="43" viewBox="0 0 42 43" fill="none" xmlns="http://www.w3.org/2000/svg">
<path d="M38.4 5.43994H6V36.6399H38.4V5.43994Z" fill="white"/>
<path d="M34.6486 20.289L6.65625 23.2656L8.03187 36.2019L36.0243 33.2252L34.6486 20.289Z" fill="#FFD42F"/>
<path fill-rule="evenodd" clip-rule="evenodd" d="M2.02267 12.3959V30.658C2.02267 36.1733 6.55561 40.6799 12.1032 40.6799H30.4722C36.0198 40.6799 40.5527 36.1733 40.5527 30.658V12.3959C40.5527 6.88061 36.0198 2.37402 30.4722 2.37402H12.1032C6.55561 2.37402 2.02267 6.88061 2.02267 12.3959ZM31.2759 19.326L31.276 15.3435C28.1662 15.1208 25.6757 12.7103 25.3462 9.63168H21.8938L21.8543 26.3741C21.8543 28.4178 20.0358 30.0423 17.967 30.0423C15.8982 30.0423 14.2247 28.3785 14.2247 26.3218C14.2247 24.265 15.8982 22.6012 17.967 22.6012C18.0657 22.6012 18.1704 22.6133 18.273 22.6252C18.3211 22.6308 18.3688 22.6364 18.415 22.6406V19.051C18.2701 19.0378 18.1252 19.0247 17.967 19.0247C13.9216 19.0247 10.6405 22.2868 10.6405 26.3086C10.6405 30.3305 13.9216 33.5925 17.967 33.5925C22.0125 33.5925 25.2935 30.3305 25.2935 26.3086V16.4571C26.4795 18.2649 28.5088 19.3523 30.6829 19.3523C30.8806 19.3523 31.0782 19.3391 31.2759 19.326Z" fill="black"/>
</svg>
