<svg width="42" height="43" viewBox="0 0 42 43" fill="none" xmlns="http://www.w3.org/2000/svg">
<path d="M37.2 5.43994H4.79999V36.6399H37.2V5.43994Z" fill="white"/>
<path d="M35.7199 20.224L7.72754 23.2007L8.97996 34.9784L36.9723 32.0017L35.7199 20.224Z" fill="#FFD42F"/>
<path fill-rule="evenodd" clip-rule="evenodd" d="M1.60782 11.8857V30.1478C1.60782 35.6631 6.14077 40.1697 11.6884 40.1697H30.0574C35.605 40.1697 40.1379 35.6631 40.1379 30.1478V11.8857C40.1379 6.37035 35.605 1.86377 30.0574 1.86377H11.6884C6.14077 1.86377 1.60782 6.37035 1.60782 11.8857ZM12.028 11.7258C14.3903 9.55855 18.6138 9.23572 20.5783 9.21201C21.2316 9.20053 21.6378 9.2273 21.6378 9.2273C27.1122 9.2472 29.5625 11.0327 30.1722 11.5942H30.1845C32.2048 13.3476 33.324 17.2238 32.5713 23.376C31.9023 28.8082 28.1098 29.7639 26.8422 30.0834C26.7198 30.1142 26.6209 30.139 26.5507 30.1615C26.2042 30.2732 23.1954 31.026 19.2671 30.6993L17.8404 32.3127C17.7094 32.4526 17.5873 32.591 17.4711 32.7228C16.9083 33.3604 16.4794 33.8466 15.8124 33.6354C15.1591 33.4327 15.195 32.4442 15.195 32.4442V29.9742C9.45372 28.3524 9.52564 22.396 9.5853 19.2243C9.65722 16.0412 10.2707 13.467 12.028 11.7258ZM21.5423 10.9616C21.5423 10.9616 21.2033 10.9378 20.6457 10.9417H20.6441C18.9749 10.9539 15.3886 11.1972 13.3927 13.0018C11.9101 14.4722 11.4121 16.6432 11.3525 19.297C11.3507 19.3887 11.3486 19.4833 11.3464 19.5805C11.2868 22.2973 11.1818 27.0777 15.8827 28.3776L15.8591 32.4772C15.8514 32.7006 15.8913 32.8635 16.0228 32.8957C16.1146 32.9155 16.2585 32.8758 16.3816 32.7404C17.1588 31.9677 19.6451 28.9674 19.6451 28.9674C22.9835 29.1823 25.6335 28.529 25.9204 28.4372C25.987 28.416 26.0827 28.3938 26.2017 28.366C27.2851 28.1143 30.2961 27.4144 30.8454 22.9269C31.4873 17.7907 30.6106 14.2962 28.9092 12.8382C28.3875 12.3684 26.1759 10.9738 21.5423 10.9616ZM20.8959 13.6168C20.9331 13.6018 20.9728 13.5943 21.0129 13.5946C22.8175 13.5946 24.3521 14.2036 25.5631 15.3871C26.1845 16.0291 26.6688 16.7906 26.9866 17.6256C27.3045 18.4605 27.4493 19.3514 27.4121 20.2441C27.4113 20.3248 27.3786 20.402 27.3211 20.4588C27.2637 20.5155 27.1861 20.5472 27.1054 20.547V20.5592C26.934 20.5592 26.7985 20.42 26.7985 20.2525C26.7779 18.356 26.2363 16.9056 25.1248 15.8262C24.5803 15.2979 23.9367 14.8826 23.2309 14.6042C22.5252 14.3258 21.7714 14.19 21.0129 14.2044C20.8453 14.2044 20.7061 14.069 20.7061 13.8976C20.7063 13.8576 20.7142 13.8178 20.7298 13.7809C20.7453 13.7439 20.7679 13.7104 20.7964 13.6822C20.8249 13.6542 20.8588 13.6318 20.8959 13.6168ZM16.3548 14.4194C16.5432 14.308 16.764 14.2646 16.9806 14.2962L16.9791 14.2947C17.1813 14.3331 17.3633 14.4417 17.4931 14.6014C18.0868 15.2788 18.6126 16.013 19.0629 16.7931C19.3575 17.3156 19.1662 17.845 18.8915 18.0684L18.3178 18.5305C18.0233 18.7538 18.063 19.1922 18.063 19.1922C18.063 19.1922 18.9121 22.4151 22.0954 23.2284L22.1076 23.2207C22.1076 23.2207 22.5345 23.2605 22.7693 22.9736L23.2276 22.396C23.4425 22.1091 23.9727 21.9378 24.4944 22.2208C25.2735 22.6742 26.0074 23.2012 26.6861 23.7944C27.025 24.0775 27.1045 24.4959 26.8697 24.9381V24.9458C26.6195 25.3852 26.2991 25.7809 25.9211 26.117C25.6109 26.3986 25.2153 26.5683 24.7973 26.5989C24.6658 26.5989 24.535 26.579 24.3911 26.5354V26.5278C23.9008 26.384 23.0837 26.0374 21.7373 25.3046C20.5593 24.653 19.4693 23.8538 18.4937 22.9262L18.4617 22.8986L18.4341 22.8664L18.3905 22.8344L18.3629 22.7946C17.4379 21.8226 16.6425 20.7351 15.996 19.5594C15.4942 18.7225 15.0834 17.8335 14.7689 16.9094L14.7491 16.8972C14.6932 16.7182 14.6771 16.5308 14.7009 16.3434C14.7407 16.029 14.8921 15.7023 15.1714 15.3794C15.5074 14.9998 15.9013 14.6757 16.3387 14.4194H16.3548ZM21.546 15.8186C21.136 15.8186 21.136 15.205 21.5423 15.205H21.5858C22.9132 15.296 23.9527 15.7543 24.6978 16.5714C25.4392 17.3883 25.8171 18.4081 25.7896 19.6237C25.789 19.7048 25.7565 19.7826 25.699 19.8399C25.6416 19.8973 25.564 19.9298 25.4827 19.9304L25.4705 19.9143C25.39 19.914 25.3127 19.882 25.2553 19.8254C25.1981 19.7688 25.1652 19.692 25.1638 19.6114C25.1941 19.1354 25.1287 18.658 24.9713 18.2077C24.8139 17.7573 24.5677 17.3432 24.2473 16.9898C23.8961 16.6267 23.4767 16.3363 23.0133 16.1354C22.5497 15.9344 22.0512 15.8268 21.546 15.8186ZM22.0249 17.4801C21.6103 17.4679 21.6264 16.8421 22.0449 16.8543L22.0571 16.8552C23.3797 16.9263 24.1249 17.6959 24.1968 19.0622C24.1992 19.103 24.1936 19.1439 24.18 19.1826C24.1666 19.2213 24.1455 19.2568 24.118 19.2872C24.0906 19.3177 24.0574 19.3423 24.0204 19.3597C23.9833 19.3772 23.9431 19.387 23.9022 19.3888H23.89C23.8104 19.3884 23.7342 19.3569 23.6776 19.301C23.6209 19.2451 23.5885 19.1692 23.5871 19.0897C23.5228 18.0416 23.0332 17.5322 22.0249 17.4801Z" fill="black"/>
</svg>
