<svg width="225" height="70" viewBox="0 0 225 70" fill="none" xmlns="http://www.w3.org/2000/svg">
<mask id="mask0_46_20" style="mask-type:luminance" maskUnits="userSpaceOnUse" x="0" y="0" width="225" height="70">
<path d="M225 0H0V70H225V0Z" fill="white"/>
</mask>
<g mask="url(#mask0_46_20)">
<path d="M204.972 0.789551L128.231 8.75469L129.966 23.327L206.708 15.3619L204.972 0.789551Z" fill="white"/>
<path d="M202.995 53.7143L129.659 46.105L128.234 60.7081L201.262 68.2855L202.995 53.7143Z" fill="white"/>
<path d="M225.001 27.2803H130.047V41.9421H225.001V27.2803Z" fill="white"/>
<path d="M138.721 11.1366L145.961 10.3823L146.203 12.4159L143.836 12.6612L144.513 18.3195L141.984 18.5834L141.306 12.925L138.965 13.1676L138.721 11.1366Z" fill="black"/>
<path d="M148.41 11.1601C149.152 10.2939 150.167 9.78755 151.436 9.65426C152.707 9.52097 153.803 9.80883 154.731 10.5018C155.659 11.1948 156.184 12.085 156.316 13.1965C156.447 14.3052 156.15 15.294 155.408 16.1602C154.665 17.0264 153.664 17.5222 152.393 17.6527C151.123 17.7861 150.015 17.5009 149.087 16.8079C148.159 16.1149 147.633 15.2114 147.502 14.1133C147.368 13.0046 147.668 12.0291 148.41 11.1601ZM152.136 15.5019C152.667 15.4459 153.081 15.2247 153.38 14.8489C153.681 14.4625 153.803 14.004 153.741 13.4656C153.675 12.9272 153.447 12.5061 153.064 12.1996C152.682 11.8824 152.224 11.7518 151.694 11.8078C151.163 11.8638 150.748 12.085 150.449 12.4715C150.149 12.8473 150.024 13.3056 150.089 13.8441C150.155 14.3825 150.383 14.8036 150.766 15.1208C151.148 15.4273 151.605 15.5578 152.136 15.5019Z" fill="black"/>
<path d="M158.686 16.8463L157.767 9.1542L161.947 8.71976C162.711 8.6398 163.354 8.74109 163.89 9.02894C164.424 9.30612 164.73 9.7646 164.807 10.4123C164.85 10.7747 164.781 11.1052 164.59 11.3797C164.396 11.6569 164.204 11.8541 163.993 11.9767C164.353 12.0061 164.733 12.19 165.121 12.5258C165.506 12.8536 165.738 13.296 165.803 13.8451C165.883 14.5141 165.666 15.0844 165.161 15.5482C164.656 16.012 163.951 16.2972 163.046 16.3904L158.686 16.8463ZM160.638 11.7582L161.921 11.6249C162.263 11.5903 162.494 11.3424 162.463 11.0679C162.426 10.748 162.14 10.5561 161.797 10.5908L160.516 10.724L160.638 11.7582ZM160.987 14.682L162.317 14.5434C162.777 14.4955 163.043 14.2236 162.996 13.8398C162.951 13.456 162.602 13.2241 162.166 13.2694L160.836 13.408L160.987 14.682Z" fill="black"/>
<path d="M167.218 15.9574L169.685 7.8682L172.098 7.61768L176.423 15.0005L173.705 15.283L172.946 13.9051L170.262 14.185L169.834 15.6882L167.218 15.9574ZM170.779 12.3379L171.992 12.2126L171.173 10.4509L170.779 12.3379Z" fill="black"/>
<path d="M180.8 6.75509C181.742 6.65647 182.522 6.80839 183.144 7.22419C183.778 7.63729 184.132 8.19967 184.217 8.93797C184.302 9.66296 184.094 10.2973 183.572 10.8303C183.064 11.3607 182.339 11.6698 181.397 11.7685L180.137 11.8991L180.458 14.5803L177.927 14.8442L177.009 7.15221L180.8 6.75509ZM180.854 10.0867C181.37 10.0334 181.691 9.71089 181.642 9.30307C181.593 8.89534 181.197 8.66076 180.688 8.71141L179.769 8.80736L179.931 10.18L180.854 10.0867Z" fill="black"/>
<path d="M186.475 13.9543L185.556 6.26221L188.006 6.00634L188.463 9.83107L191.184 5.67586L193.268 5.45996L194.187 13.152L191.764 13.4052L191.308 9.61515L188.631 13.733L186.475 13.9543Z" fill="black"/>
<path d="M141.255 39.8838V36.4109H142.097C142.631 35.5152 142.903 34.1107 142.903 32.2211V30.7178H149.357V36.4109H150.399V39.8838H148.007V38.4578H143.633V39.8838H141.255ZM146.819 36.4135V32.7648H145.292C145.292 33.3724 145.232 34.0254 145.126 34.745C145.021 35.454 144.866 36.0057 144.652 36.4135H146.819Z" fill="black"/>
<path d="M151.52 36.2457C151.757 36.3443 151.945 36.3895 152.1 36.3895C152.397 36.3895 152.608 36.3336 152.751 36.2244C153.036 35.9925 153.259 35.1528 153.273 33.3058L153.307 30.7178H159.846V38.4578H157.31V32.7648H155.617L155.606 33.6923C155.595 35.5819 155.297 36.8772 154.764 37.5836C154.241 38.2925 153.59 38.5564 152.68 38.5564C152.146 38.5564 151.754 38.4897 151.517 38.3458V36.2457H151.52Z" fill="black"/>
<path d="M161.245 38.4566L163.721 35.4261C162.773 34.9837 162.205 34.1761 162.205 33.2032C162.205 32.4836 162.491 31.8866 163.058 31.4228C163.626 30.9484 164.386 30.7139 165.32 30.7139H169.299V38.4538H166.753V35.69H166.421L164.195 38.4538H161.245V38.4566ZM166.753 33.9575V32.7075H165.616C165.143 32.7075 164.823 32.9394 164.823 33.3258C164.823 33.7123 165.143 33.9549 165.616 33.9549H166.753V33.9575Z" fill="black"/>
<path d="M174.618 39.8818V36.4089H175.46C175.994 35.5134 176.265 34.1088 176.265 32.219V30.7158H182.72V36.4089H183.763V39.8818H181.37V38.4559H176.999V39.8818H174.618ZM180.185 36.4115V32.7628H178.658C178.658 33.3705 178.597 34.0235 178.493 34.7431C178.386 35.4522 178.233 36.0038 178.018 36.4115H180.185Z" fill="black"/>
<path d="M186.536 31.7448C187.378 30.9587 188.442 30.5615 189.721 30.5615C191 30.5615 192.054 30.9587 192.896 31.7448C193.738 32.5311 194.152 33.4693 194.152 34.5861C194.152 35.7029 193.738 36.6543 192.896 37.4379C192.054 38.2242 191 38.6106 189.721 38.6106C188.442 38.6106 187.378 38.2136 186.536 37.4273C185.692 36.641 185.28 35.6922 185.28 34.5861C185.28 33.4693 185.692 32.5311 186.536 31.7448ZM189.718 36.4438C190.253 36.4438 190.688 36.2679 191.032 35.9241C191.374 35.5697 191.555 35.1272 191.555 34.5861C191.555 34.045 191.378 33.6027 191.032 33.2588C190.688 32.9044 190.249 32.7283 189.718 32.7283C189.184 32.7283 188.748 32.9044 188.405 33.2588C188.063 33.6027 187.882 34.045 187.882 34.5861C187.882 35.1272 188.059 35.5697 188.405 35.9241C188.748 36.2679 189.188 36.4438 189.718 36.4438Z" fill="black"/>
<path d="M196.068 38.4559V30.7158H198.59L200.405 33.469L202.23 30.7158H204.739V38.4559H202.297V34.1222L201.124 35.9691H199.751L198.532 34.1222V38.4559H196.068Z" fill="black"/>
<path d="M206.858 38.2907V36.2997C207.179 36.4649 207.571 36.5422 208.021 36.5422C208.529 36.5422 208.909 36.3422 209.135 35.9558L206.175 30.7158H208.958L210.391 33.6796L211.682 30.7158H214.346L211.384 36.7314C210.994 37.5283 210.415 38.0906 209.845 38.3225C209.277 38.5439 208.898 38.6104 208.484 38.6104C207.781 38.6104 207.247 38.5012 206.858 38.2907Z" fill="black"/>
<path d="M148.944 60.5537L149.112 59.1359L139.483 58.1365L140.399 50.4443L142.928 50.7083L142.254 56.3667L143.974 56.5452L144.647 50.8868L147.165 51.148L146.491 56.8065L148.199 56.985L148.873 51.3265L151.379 51.5878L150.705 57.2463L151.73 57.3528L151.319 60.8043L148.944 60.5537Z" fill="black"/>
<path d="M155.042 53.0004C155.97 52.3075 157.077 52.0222 158.348 52.1529C159.618 52.2861 160.621 52.7899 161.362 53.656C162.105 54.5222 162.405 55.5005 162.274 56.6092C162.142 57.718 161.617 58.6214 160.689 59.3145C159.761 60.0075 158.667 60.2847 157.394 60.1513C156.124 60.0182 155.11 59.5143 154.368 58.6454C153.626 57.7794 153.326 56.7904 153.457 55.6923C153.589 54.5837 154.111 53.6934 155.042 53.0004ZM157.651 57.9978C158.182 58.0537 158.636 57.9232 159.019 57.6166C159.402 57.2995 159.63 56.8785 159.695 56.3399C159.758 55.8017 159.635 55.3432 159.336 54.9675C159.036 54.5808 158.622 54.3596 158.091 54.3037C157.56 54.2477 157.106 54.3784 156.72 54.6955C156.338 54.9993 156.109 55.4205 156.047 55.9616C155.984 56.5025 156.107 56.9585 156.407 57.3448C156.706 57.7233 157.12 57.9446 157.651 57.9978Z" fill="black"/>
<path d="M162.716 61.9848L163.127 58.5332L163.963 58.621C164.6 57.7869 165.036 56.4195 165.26 54.5406L165.437 53.0454L171.851 53.7116L171.178 59.37L172.214 59.4767L171.803 62.9281L169.424 62.6803L169.593 61.2623L165.251 60.8119L165.083 62.2299L162.716 61.9848ZM168.66 59.1088L169.091 55.4814L167.572 55.3242C167.501 55.9292 167.363 56.5714 167.173 57.2752C166.984 57.9681 166.764 58.5012 166.504 58.885L168.66 59.1088Z" fill="black"/>
<path d="M173.716 61.692L174.633 54L177.162 54.2638L176.851 56.8677L179.368 57.129L179.68 54.525L182.21 54.7889L181.294 62.4809L178.764 62.217L179.125 59.1839L176.608 58.9228L176.245 61.9559L173.716 61.692Z" fill="black"/>
<path d="M182.686 62.6248L185.505 59.8689C184.618 59.3306 184.146 58.4696 184.263 57.5049C184.348 56.7905 184.703 56.2256 185.323 55.8231C185.945 55.4099 186.724 55.258 187.654 55.3539L191.609 55.7645L190.693 63.4565L188.162 63.1925L188.49 60.4447L188.162 60.41L185.622 62.926L182.686 62.6248ZM188.694 58.7202L188.843 57.4782L187.711 57.361C187.241 57.3131 186.896 57.5103 186.85 57.8941C186.803 58.2778 187.093 58.5524 187.564 58.603L188.694 58.7202Z" fill="black"/>
<path d="M120.814 23.1911H118.978H115.067V0.791992L0 12.7724V56.5977L115.067 68.5782V46.1791C117.99 46.1606 120.36 43.9829 120.36 41.3069C120.36 40.0756 119.858 38.9509 119.032 38.0928L120.608 24.8942L120.814 23.1911Z" fill="white"/>
<path d="M115.029 36.4302C114.812 36.4302 114.601 36.4437 114.389 36.4681H115.665C115.457 36.4437 115.246 36.4302 115.029 36.4302Z" fill="black"/>
<path d="M117.573 36.4649L118.977 24.7217H111.038L112.44 36.4649H117.573Z" fill="black"/>
<path d="M17.3016 24.7217V30.6306H22.3721V44.1811H29.518V30.6306H34.5913V24.7217H17.3016Z" fill="black"/>
<path d="M48.9601 24.7217H40.3068L33.2207 44.1811H40.949L41.7455 41.4171H47.5211L48.3177 44.1811H56.0462L48.9601 24.7217ZM42.9789 37.1366L44.6319 31.401L46.285 37.1366H42.9789Z" fill="black"/>
<path d="M101.874 24.7217H93.2202L86.1346 44.1811H93.8626L94.6597 41.4171H100.435L101.231 44.1811H108.96L101.874 24.7217ZM95.8927 37.1366L97.5457 31.401L99.1987 37.1366H95.8927Z" fill="black"/>
<path d="M59.7374 37.6704C61.7746 37.6704 63.4262 36.1753 63.4262 34.3309C63.4262 32.4864 61.7746 30.9912 59.7374 30.9912C57.7004 30.9912 56.0488 32.4864 56.0488 34.3309C56.0488 36.1753 57.7004 37.6704 59.7374 37.6704Z" fill="black"/>
<path d="M86.1972 34.4392C86.1916 30.1616 83.1567 24.7935 75.1942 24.7323C73.7752 24.7216 66.6237 24.7217 66.6237 24.7217V44.181C66.6237 44.181 73.7953 44.181 75.1942 44.1703C83.1567 44.1089 86.1916 38.7411 86.1972 34.4632V34.4499V34.4392ZM75.2913 38.2718C74.6347 38.2718 73.7725 38.2718 73.7725 38.2718V30.6305C73.7725 30.6305 74.6347 30.6305 75.2913 30.6305C77.7379 30.6305 78.9 32.6241 78.9 34.4525C78.9 36.281 77.7379 38.2718 75.2913 38.2718Z" fill="black"/>
<path d="M115.03 44.6446C117.067 44.6446 118.719 43.1493 118.719 41.3049C118.719 39.4605 117.067 37.9653 115.03 37.9653C112.993 37.9653 111.342 39.4605 111.342 41.3049C111.342 43.1493 112.993 44.6446 115.03 44.6446Z" fill="black"/>
</g>
</svg>
