<svg width="42" height="43" viewBox="0 0 42 43" fill="none" xmlns="http://www.w3.org/2000/svg">
<path d="M38.4 5.43994H6V36.6399H38.4V5.43994Z" fill="white"/>
<path d="M35.4033 19.7138L7.41095 22.6904L8.66337 34.4681L36.6558 31.4914L35.4033 19.7138Z" fill="#FFD42F"/>
<path fill-rule="evenodd" clip-rule="evenodd" d="M1.92657 12.3959V30.6581C1.92657 36.1734 6.45953 40.68 12.0071 40.68H30.3761C35.9237 40.68 40.4567 36.1734 40.4567 30.6581V12.3959C40.4567 6.8806 35.9237 2.37402 30.3761 2.37402H12.0071C6.45953 2.37402 1.92657 6.8806 1.92657 12.3959ZM26.884 14.1518C29.4403 14.1518 31.5091 16.2086 31.5091 18.7501V24.2261C31.5091 26.7675 29.4403 28.8243 26.884 28.8243H15.0508C12.4944 28.8243 10.4256 26.7675 10.4256 24.2261V18.7501C10.4256 16.2086 12.4944 14.1518 15.0508 14.1518H26.884ZM19.2412 24.5012L24.5515 21.8942C24.7624 21.7763 24.5383 21.4749 24.3275 21.344L19.2544 18.5929C19.0435 18.4749 18.3319 18.6321 18.3319 18.8679V24.2261C18.3319 24.4619 19.0303 24.6191 19.2412 24.5012Z" fill="black"/>
</svg>
